<?xml version="1.0" encoding="UTF-8" standalone="no"?>
<!DOCTYPE svg PUBLIC "-//W3C//DTD SVG 1.1//EN" "http://www.w3.org/Graphics/SVG/1.1/DTD/svg11.dtd">
<svg width="100%" height="100%" viewBox="0 0 64 58" version="1.1" xmlns="http://www.w3.org/2000/svg" xmlns:xlink="http://www.w3.org/1999/xlink" xml:space="preserve" xmlns:serif="http://www.serif.com/" style="fill-rule:evenodd;clip-rule:evenodd;stroke-linejoin:round;stroke-miterlimit:2;">
    <g transform="matrix(1,0,0,1,-32,-35.0004)">
        <g transform="matrix(1.03489,0,0,1.13699,-2.23321,13.5274)">
            <path d="M77.376,59.054C76.348,59.452 75.298,59.805 74.229,60.112C72.889,60.496 71.518,60.806 70.12,61.039C68.613,61.289 67.075,61.449 65.512,61.512C65.011,61.532 64.507,61.542 64,61.542C62.72,61.542 61.456,61.477 60.209,61.35C57.975,61.123 55.798,60.697 53.698,60.091C45.318,57.67 38.149,52.368 33.367,45.315C32.983,44.749 32.983,44.034 33.367,43.468C33.882,42.709 34.424,41.97 34.992,41.253C35.702,40.358 36.452,39.497 37.24,38.673C38.031,37.845 38.86,37.054 39.725,36.303C40.599,35.543 41.51,34.823 42.453,34.147C43.415,33.458 44.411,32.814 45.438,32.219C45.941,31.927 46.452,31.646 46.97,31.378L36.544,21.888C35.79,21.202 35.79,20.087 36.544,19.401C37.298,18.714 38.523,18.714 39.277,19.401L50.624,29.729C54.774,28.122 59.285,27.241 64,27.241C76.73,27.241 87.983,33.661 94.633,43.468C95.017,44.034 95.017,44.749 94.633,45.315C91.19,50.393 86.509,54.565 81.03,57.405L90.494,66.019C91.249,66.706 91.249,67.821 90.494,68.507C89.74,69.194 88.516,69.194 87.761,68.507L77.376,59.054ZM49.817,33.969C49.452,34.144 49.091,34.325 48.734,34.513L54.608,39.86C54.8,39.531 55.012,39.214 55.243,38.909L49.817,33.969ZM47.045,35.463C46.626,35.716 46.212,35.978 45.805,36.248L53.45,43.207C53.523,42.664 53.645,42.135 53.813,41.623L47.045,35.463ZM44.266,37.335C43.883,37.623 43.506,37.918 43.136,38.221L54.329,48.409C53.906,47.568 53.612,46.662 53.469,45.712L44.266,37.335ZM41.736,39.434C41.387,39.754 41.045,40.081 40.71,40.415L59.758,57.753C60.051,57.79 60.344,57.824 60.639,57.854C61.123,57.903 61.61,57.942 62.1,57.97L41.736,39.434ZM39.444,41.75C39.129,42.101 38.821,42.459 38.521,42.824L53.24,56.221C53.776,56.407 54.319,56.579 54.867,56.738C55.352,56.878 55.842,57.007 56.336,57.125L39.444,41.75ZM37.387,44.28C37.36,44.317 37.333,44.354 37.306,44.392C40.092,48.216 43.675,51.425 47.811,53.767L37.387,44.28ZM64.88,58.013C65.034,58.008 65.188,58.003 65.342,57.997C65.851,57.977 66.357,57.945 66.861,57.901L62.549,53.977C61.505,53.847 60.51,53.579 59.586,53.194L64.88,58.013ZM69.267,57.604C69.32,57.595 69.373,57.587 69.426,57.578C69.958,57.49 70.485,57.388 71.008,57.275L67.041,53.664C66.479,53.817 65.898,53.928 65.301,53.994L69.267,57.604ZM73.147,56.734C73.568,56.612 73.985,56.482 74.399,56.344L70.024,52.362C69.689,52.572 69.34,52.765 68.979,52.94L73.147,56.734ZM78.183,54.814C83.171,52.426 87.466,48.822 90.694,44.391C84.686,36.146 74.973,30.759 64,30.759C60.367,30.759 56.871,31.35 53.602,32.439L57.976,36.421C59.689,35.346 61.764,34.717 64,34.717C69.866,34.717 74.629,39.052 74.629,44.392C74.629,46.426 73.938,48.316 72.757,49.874L78.183,54.814ZM69.95,47.32C70.469,46.449 70.764,45.451 70.764,44.392C70.764,40.994 67.733,38.235 64,38.235C62.836,38.235 61.74,38.503 60.783,38.976L69.95,47.32Z" style="fill:white;"/>
        </g>
    </g>
</svg>
