<svg width="100%" height="100%" viewBox="0 0 512 512" version="1.1" xmlns="http://www.w3.org/2000/svg" xmlns:xlink="http://www.w3.org/1999/xlink" xml:space="preserve" xmlns:serif="http://www.serif.com/" style="fill-rule:evenodd;clip-rule:evenodd;stroke-linejoin:round;stroke-miterlimit:2;">
    <g transform="matrix(1.336866,0,0,1.336866,-86.088773,-85.357585)">
        <path d="M192.667,369.646C194.428,366.697 197.796,360.811 199.698,355.897C202.267,349.257 204.55,342.03 203.8,336.932C203.639,335.832 202.73,334.932 201.875,333.9C200.614,332.379 199.098,330.908 197.486,329.465C192.241,324.768 186.109,320.408 181.778,316.486C173.676,309.148 171.179,301.107 172.559,295.297C173.8,290.072 179.327,283.799 189.108,279.703C196.085,276.782 205.709,274.132 213.453,270.959C215.555,270.098 217.578,269.492 218.9,268.568C218.805,266.418 218.515,260.513 218.054,256.502C216.711,244.811 217.034,232.767 221.851,225.7C225.29,220.654 232.374,216.327 241.062,213.496C245.658,211.998 252.444,210.007 257.116,208.66C255.246,204.143 252.237,198.537 248.87,192.424C234.279,165.94 211.015,132.666 211.015,132.666C209.537,130.552 208.75,128.032 208.761,125.452L208.973,76.295C209.003,69.396 214.628,63.819 221.527,63.849C228.426,63.879 234.003,69.504 233.973,76.403L233.778,121.634C240.131,130.893 258.431,157.97 270.767,180.36C278.202,193.857 283.284,206.06 283.947,212.836C284.527,218.769 282.041,224.876 274.405,229.071C269.666,231.675 260.999,233.752 252.649,236.109C249.664,236.951 246.736,237.849 244.284,238.989C243.639,239.289 242.695,239.871 242.323,240.104C241.749,241.312 242.112,242.999 242.15,244.764C242.249,249.268 242.983,254.192 243.47,258.728C244,263.66 244.237,268.256 243.815,271.943C243.297,276.458 241.809,280.11 239.733,282.837C237.255,286.091 233.194,289.24 227.919,291.856C222.581,294.502 215.737,296.818 209.148,299.027C207.217,299.675 204.955,300.536 202.812,301.389C204.106,302.499 205.43,303.607 206.613,304.549C212.057,308.883 217.655,313.616 221.595,318.525C225.389,323.251 227.796,328.273 228.534,333.295C230.398,345.964 223.097,367.44 215.981,379.819C211.332,387.905 205.668,392.376 202.82,393.38C199.633,394.504 186.82,395.076 171.263,395.316C152.705,395.602 129.227,395.633 119.565,400.078C115.593,401.905 114.453,406.146 112.975,410.452C110.107,418.812 107.923,428.268 103.498,436.399C100.201,442.459 92.604,444.702 86.544,441.405C80.484,438.107 78.241,430.51 81.538,424.451C86.254,415.783 87.815,405.317 91.359,397.003C95.082,388.268 100.482,381.338 109.116,377.366C118.914,372.858 140.27,371.037 160.208,370.529C172.266,370.222 186.827,369.812 192.667,369.646ZM371.58,227.132C367.294,221.726 368.204,213.857 373.611,209.572C379.017,205.286 386.886,206.197 391.171,211.603C419.044,246.767 431.569,281.399 431.085,315.316C430.601,349.173 417.104,382.564 391.653,415.324C387.421,420.772 379.561,421.758 374.113,417.526C368.665,413.293 367.679,405.434 371.911,399.986C393.606,372.061 405.675,343.82 406.087,314.959C406.498,286.159 395.247,256.991 371.58,227.132ZM347.898,377.052C343.242,382.142 335.328,382.494 330.238,377.837C325.148,373.181 324.796,365.267 329.453,360.177C344.493,343.737 352.296,327.512 352.202,311.072C352.109,294.547 344.09,278.233 329.348,261.708C324.755,256.56 325.206,248.652 330.354,244.059C335.502,239.467 343.41,239.918 348.003,245.066C367.528,266.951 377.078,289.044 377.202,310.93C377.327,332.9 367.998,355.082 347.898,377.052ZM288.108,287.686C283.621,282.446 284.231,274.548 289.471,270.061C294.711,265.573 302.608,266.183 307.096,271.423C317.774,283.89 322.446,296.512 322.301,308.979C322.159,321.263 317.267,333.699 307.315,345.983C302.972,351.344 295.094,352.17 289.733,347.827C284.373,343.484 283.547,335.606 287.89,330.246C293.753,323.008 297.219,315.927 297.303,308.69C297.385,301.635 294.151,294.741 288.108,287.686Z" style="fill:white;"/>
    </g>
</svg>