<?xml version="1.0" encoding="UTF-8" standalone="no"?>
<!DOCTYPE svg PUBLIC "-//W3C//DTD SVG 1.1//EN" "http://www.w3.org/Graphics/SVG/1.1/DTD/svg11.dtd">
<svg width="100%" height="100%" viewBox="0 0 512 512" version="1.1" xmlns="http://www.w3.org/2000/svg" xmlns:xlink="http://www.w3.org/1999/xlink" xml:space="preserve" xmlns:serif="http://www.serif.com/" style="fill-rule:evenodd;clip-rule:evenodd;stroke-linejoin:round;stroke-miterlimit:2;">
    <g id="Final" transform="matrix(1.41871,0,0,1.41871,-100.769816,-115.553349)">
        <path d="M388.266,288.97C390.951,293.625 391.872,299.144 390.313,305.742C388.026,315.422 381.802,320.869 373.254,323.287C365.259,325.548 352.794,322.855 347.257,322.379C343.458,322.053 339.698,321.582 336.026,321.03C344.501,325.426 351.933,329.413 355.65,331.733C359.024,333.839 371.478,339.385 376.61,345.974C382.667,353.749 384.157,362.534 378.446,372.087C373.732,379.971 366.637,383.4 358.238,383.529C349.665,383.66 338.164,377.858 332.871,375.023C331.093,374.071 319.817,368.491 306.287,362.033C312.058,367.251 317.098,371.826 320.414,375.218C325.037,379.948 331.233,385.386 334.154,390.512C339.416,399.743 339.538,408.911 331.701,417.818C326.069,424.219 319.215,426.27 311.621,425.215C304.54,424.231 295.274,417.959 288.189,411.914L287.88,411.651C287.887,411.878 287.89,412.104 287.889,412.331C287.875,417.027 286.525,422.113 282.009,427.153C274.443,435.596 265.587,436.454 256.644,433.053C251.672,431.162 246.486,426.662 243.477,424.574C232.516,416.968 213.067,396.058 194.853,382.151C173.903,366.155 139.585,339.008 132.723,327.739C130.438,323.987 124.203,319.398 117.255,314.224C103.707,304.135 86.989,293.544 78.071,287.144C73.818,284.092 71.246,279.22 71.125,273.987C70.553,249.105 72.485,244.727 78.336,225.005C84.151,205.404 101.561,187.855 113.859,178.872C118.75,175.301 125.192,174.663 130.688,177.206C136.075,179.698 141.213,182.375 146.288,185.218C156.028,183.715 165.986,182.648 176.823,181.356C181.061,172.967 190.827,154.53 197.472,148.965C220.069,130.04 234.791,117.175 250.523,92.707C251.998,90.414 254.5,88.987 257.223,88.886C262.674,88.683 266.928,91.176 269.895,95.719C273.8,101.697 274.778,113.028 273.38,121.144C272.619,125.56 270.04,130.232 266.411,134.68C262.427,139.563 257.133,144.302 253.637,148.338C251.222,151.127 247.787,155.259 245.373,159.331L245.258,159.531C248.51,159.422 252.373,159.258 254.585,159.048C262.68,158.278 282.819,154.334 289.822,152.659C297.641,150.788 350.573,128.43 364.595,121.781C369.536,119.438 377.061,115.351 383.259,114.481C390.717,113.434 396.911,115.706 400.384,123.058C403.842,130.375 401.519,136.948 395.786,142.353C391.073,146.796 383.325,150.216 380.017,152.42C362.909,163.819 344.087,171.309 335.626,177.681C332.041,180.381 328.989,182.278 326.504,183.752C327.756,183.632 329.119,183.383 330.597,183.08C336.858,181.796 385.048,171.212 397.992,169.71C399.774,169.504 404.025,168.195 408.464,167.515C412.632,166.876 416.914,166.77 420.353,167.596C426.49,169.069 430.804,172.816 431.761,179.879C432.758,187.248 429.016,192.703 422.549,196.218C416.94,199.266 408.779,200.536 404.717,201.283C401.049,201.957 362.453,210.434 338.564,216.889C335.649,217.677 332.909,218.53 330.715,219.655L330.863,219.696C333.508,220.398 336.653,220.789 339.877,221.192C360.057,223.714 384.062,224.242 395.582,225.67C401.47,226.4 408.885,226.567 413.8,228.527C420.185,231.072 424.044,235.594 423.674,243.259C423.35,249.969 419.512,254.218 413.19,256.383C408.181,258.099 400.808,258.059 394.577,257.853C382.202,257.445 348.921,257.539 325.856,256.629C325.291,256.607 324.747,256.593 324.224,256.588L325.015,256.779C341.247,260.642 364.645,262.978 372.145,265.558C372.703,265.621 379.327,266.383 382.432,267.779C387.418,270.022 391.087,273.934 390.655,281.473C390.48,284.539 389.63,287.005 388.266,288.97ZM120.867,194.481C111.089,202.225 98.636,215.178 94.314,229.745C89.074,247.408 87.275,251.319 87.788,273.603C102.743,284.335 139.486,306.8 146.958,319.071C153.312,329.506 185.568,354.092 204.967,368.904C222.968,382.648 242.145,403.364 252.978,410.88C256.706,413.467 264.386,421.845 269.596,416.031C274.742,410.288 266.205,405.29 264.282,402.17C260.311,395.727 243.506,379.5 233.327,366.486C226.953,358.336 223.012,354.435 227.742,350.807C232.254,347.347 237.555,348.075 246.092,355.455C263.541,370.539 289.595,391.205 299.007,399.235C305.642,404.896 314.27,412.397 319.189,406.808C324.947,400.264 314.614,393.128 308.495,386.868C300.38,378.566 281.942,363.181 267.737,348.622C261.369,342.094 255.522,335.844 258.785,330.703C262.297,325.17 270.169,327.282 278.678,330.976C301.606,340.928 337.418,358.552 340.739,360.331C345.95,363.121 359.404,371.457 364.141,363.535C369.486,354.594 350.552,348.197 346.826,345.872C335.887,339.046 292.069,317.519 286.434,314.648C279.179,310.952 274.965,307.61 276.682,300.815C278.645,293.042 282.241,297.376 297.748,297.809C308.435,298.107 328.009,303.999 348.682,305.774C354.792,306.298 371.733,311.9 374.093,301.91C374.725,299.234 373.975,297.159 372.398,295.518C368.321,291.278 358.714,289.935 353.118,288.621C337.688,284.998 281.21,269.044 273.776,265.558C267.045,262.401 248.259,252.6 241.229,248.009C235.88,244.516 225.917,238.167 226.221,235.3C226.908,228.815 242.164,225.369 250.202,223.876C258.838,222.272 272.533,222.272 278.579,216.896C285.289,210.931 292.947,199.183 286.653,194.534C258.202,204.152 238.048,205.139 207.627,205.863C197.236,206.11 170.538,219.428 170.538,219.428C153.655,209.057 139.844,199.807 123.689,192.332C122.782,192.994 121.837,193.712 120.867,194.481Z" style="fill:white;"/>
    </g>
</svg>
