<svg width="361" height="102" viewBox="0 0 361 102" fill="none" xmlns="http://www.w3.org/2000/svg">
<path d="M10.6605 0.210449H349.77C355.253 0.977233 358.703 4.08268 360.122 9.52684V92.9529C358.435 98.9722 354.448 102.001 348.16 102.001C236.402 102.001 124.604 102.001 12.8458 102.001C9.85531 102.001 7.66997 101.618 6.25142 100.889C2.37916 98.8188 0.117188 94.9466 0.117188 90.5759C0.155527 64.5819 0.155527 38.473 0.117188 12.249C0.117188 5.73135 3.95107 1.20727 10.6221 0.210449H10.6605ZM356.978 11.7122C356.978 7.22652 353.336 3.58432 348.85 3.58432H11.5039C7.01824 3.58432 3.37598 7.22652 3.37598 11.7122V90.6524C3.37598 95.1381 7.01824 98.7803 11.5039 98.7803H348.85C353.336 98.7803 356.978 95.1381 356.978 90.6524V11.7122Z" fill="black"/>
<path d="M215.085 12.8613H213.207C213.08 12.8613 212.977 12.9643 212.977 13.0914V31.3025C212.977 31.4295 213.08 31.5325 213.207 31.5325H215.085C215.212 31.5325 215.315 31.4295 215.315 31.3025V13.0914C215.315 12.9643 215.212 12.8613 215.085 12.8613Z" fill="black"/>
<path d="M103.134 14.28C103.134 13.7816 103.556 13.3599 104.054 13.3599H108.885C113.639 13.3599 117.473 17.0787 117.473 21.6794V23.1363C117.473 27.737 113.601 31.4177 108.847 31.4177H104.016C103.517 31.4177 103.096 30.9958 103.096 30.4974V14.28H103.134ZM105.434 15.7752V29.0788C105.396 29.4622 105.703 29.7689 106.086 29.7689H108.463C112.144 29.7689 115.173 26.8169 115.173 23.1363V21.7562C115.173 18.0756 112.22 15.0852 108.54 15.0852H106.163C105.779 15.0852 105.473 15.3919 105.473 15.7752H105.434Z" fill="black"/>
<path d="M121.689 16.235C122.472 16.235 123.108 15.5999 123.108 14.8165C123.108 14.033 122.472 13.3979 121.689 13.3979C120.906 13.3979 120.271 14.033 120.271 14.8165C120.271 15.5999 120.906 16.235 121.689 16.235Z" fill="black"/>
<path d="M181.349 16.3502C182.537 15.0466 182.997 12.5547 185.374 13.5515C185.643 13.6665 185.643 13.8198 185.451 14.0115L182.806 16.8104C182.576 17.0405 182.269 17.1553 181.924 17.117H181.579C181.349 17.0403 181.157 16.8102 181.195 16.5802C181.195 16.5035 181.234 16.4268 181.31 16.3502H181.349Z" fill="black"/>
<path d="M122.533 18.3823H120.923C120.733 18.3823 120.578 18.5369 120.578 18.7275V31.1877C120.578 31.3783 120.733 31.5326 120.923 31.5326H122.533C122.724 31.5326 122.878 31.3783 122.878 31.1877V18.7275C122.878 18.5369 122.724 18.3823 122.533 18.3823Z" fill="black"/>
<path d="M132.081 27.2006C131.315 26.3571 130.318 25.7054 129.053 25.322C122.88 23.4051 127.519 16.5424 133.193 18.8811C133.577 19.0344 133.807 19.4562 133.73 19.8779L133.615 20.2996C133.5 20.798 133.231 20.9131 132.771 20.6448C131.353 19.763 130.011 19.8012 128.784 20.798C128.209 21.2581 128.132 22.1015 128.592 22.6766C128.707 22.7916 128.823 22.9067 128.976 22.9834C129.896 23.4818 130.816 23.9034 131.775 24.2868C134.995 25.5136 135.302 29.5778 132.043 30.9196C130.049 31.7247 128.056 31.648 126.062 30.6512C125.794 30.5362 125.717 30.306 125.832 30.0377L126.215 29.2711C126.33 29.0027 126.676 28.8875 126.944 29.0408C128.708 29.9993 131.008 30.3062 132.196 28.2742C132.426 27.8908 132.388 27.5073 132.081 27.1622V27.2006Z" fill="black"/>
<path d="M139.671 30.3061L139.863 36.057C139.863 36.3637 139.709 36.5171 139.403 36.5171H137.831C137.601 36.5171 137.447 36.3254 137.447 36.0954V18.5744C137.447 18.5744 137.486 18.4211 137.601 18.4211H138.981C139.326 18.3444 139.479 18.5361 139.441 18.8811L139.288 20.1845C139.211 20.7596 139.364 20.798 139.748 20.4146C142.7 17.1174 147.377 18.0377 148.757 22.2166C150.636 27.8908 145.997 34.4851 140.016 30.1145C139.748 29.9228 139.633 29.9994 139.633 30.3061H139.671ZM146.879 23.5203C146.879 21.7183 145.499 20.2229 143.697 20.1845H143.198C141.396 20.1462 139.901 21.5648 139.863 23.3667L139.786 26.3957C139.786 28.1976 141.166 29.6928 142.968 29.7312H143.467C145.268 29.7695 146.764 28.3509 146.802 26.549L146.879 23.5203Z" fill="black"/>
<path d="M156.732 31.4943C153.32 31.1109 150.904 27.852 151.326 24.2481C151.748 20.6442 154.853 18.0373 158.227 18.4207C161.639 18.8041 164.055 22.063 163.633 25.6669C163.211 29.2708 160.106 31.8777 156.732 31.4943ZM157.46 29.8457C159.607 29.8457 161.371 27.6986 161.409 24.9766C161.409 22.2928 159.722 20.0693 157.575 20.0693C155.428 20.0693 153.665 22.2163 153.626 24.9384C153.626 27.6222 155.313 29.8457 157.46 29.8457Z" fill="black"/>
<path d="M169.156 20.3764C172.492 16.7725 177.093 18.4977 177.323 23.1367C177.438 25.7438 177.476 28.4276 177.399 31.1497C177.399 31.3414 177.284 31.4563 177.093 31.4563L175.367 31.533C175.137 31.533 175.061 31.4179 175.061 31.2262V23.9803C175.061 22.4084 174.409 21.2197 173.029 20.4145C172.645 20.1845 172.3 20.1463 171.917 20.2613C170.076 20.798 169.156 21.9483 169.156 23.7119C169.156 26.0889 169.156 28.581 169.156 31.1497C169.156 31.3414 169.041 31.4563 168.85 31.4946L167.086 31.5714C167.086 31.5714 166.779 31.4563 166.779 31.303V18.8811C166.779 18.6511 166.933 18.4594 167.201 18.4594H168.39C168.696 18.4594 168.85 18.6128 168.85 18.9195L168.735 20.2229C168.696 20.7596 168.85 20.8363 169.195 20.4529L169.156 20.3764Z" fill="black"/>
<path d="M183.197 18.5189L181.395 18.5221C181.268 18.5223 181.165 18.6254 181.165 18.7525L181.187 31.2895C181.188 31.4165 181.291 31.5193 181.418 31.5191L183.22 31.5159C183.347 31.5157 183.45 31.4125 183.449 31.2855L183.427 18.7485C183.427 18.6215 183.324 18.5187 183.197 18.5189Z" fill="black"/>
<path d="M191.699 28.4271C191.891 29.0789 192.121 29.0789 192.351 28.4271L195.533 18.689C195.533 18.689 195.609 18.5355 195.686 18.5355C196.3 18.3822 197.028 18.344 197.871 18.459C197.987 18.459 198.025 18.5356 197.986 18.6123L193.271 30.9193C193.156 31.1876 192.964 31.3792 192.696 31.4942C192.274 31.6476 191.814 31.686 191.354 31.571C191.009 31.4943 190.779 31.2643 190.664 30.9193L186.14 18.6507C186.14 18.6507 186.14 18.459 186.255 18.4206C186.255 18.4206 186.255 18.4206 186.293 18.4206H188.21C188.21 18.4206 188.517 18.4973 188.593 18.6507L191.737 28.4271H191.699Z" fill="black"/>
<path d="M202.278 25.7055C200.936 25.7055 200.668 26.2425 201.396 27.3543C201.588 27.661 201.818 27.9293 201.971 28.1976C202.7 29.2328 203.888 29.8462 205.154 29.8078C206.764 29.7695 207.876 29.5778 208.489 29.3094C208.758 29.1944 209.064 29.3094 209.218 29.5394C209.218 29.5394 209.218 29.5395 209.218 29.5778L209.371 30.0378C209.486 30.3446 209.333 30.6896 209.026 30.7663C206.994 31.5714 204.962 31.6865 203.007 31.1115C195.684 29.0028 198.866 16.4658 206.419 18.5745C209.218 19.3413 210.138 22.2935 210.138 24.9389C210.138 25.4373 209.908 25.6674 209.409 25.6674H202.24L202.278 25.7055ZM201.588 24.0186H207.761C207.761 24.0186 208.029 23.8654 208.029 23.712V23.3285C208.029 21.5265 206.534 20.0698 204.694 20.0698H204.655C202.815 20.0698 201.358 21.5649 201.358 23.3669V23.7504C201.358 23.7504 201.473 24.0186 201.626 24.0186H201.588Z" fill="black"/>
<path d="M227.969 20.2993C230.154 17.9223 232.378 17.6923 234.602 19.686C236.787 21.6029 236.135 28.3888 236.097 31.0726C236.097 31.341 235.944 31.4559 235.675 31.4943H234.065C234.065 31.4943 233.797 31.4559 233.797 31.2642V23.788C233.797 22.0628 232.991 20.9127 231.381 20.2993C231.075 20.1843 230.806 20.1843 230.499 20.2993C228.621 20.9511 227.701 22.2162 227.777 24.0948C227.816 26.4335 227.854 28.7339 227.854 31.0342C227.854 31.3409 227.701 31.4943 227.394 31.5326H226.052C225.707 31.571 225.554 31.4176 225.554 31.0726V18.9956C225.554 18.5739 225.745 18.4207 226.129 18.4591C226.244 18.4591 226.359 18.4591 226.435 18.4591C227.279 18.2674 227.624 18.5741 227.432 19.4176C227.394 19.6859 227.356 19.9158 227.394 20.1842C227.432 20.6826 227.624 20.7211 227.969 20.376V20.2993Z" fill="black"/>
<path d="M246.486 22.9448C246.064 20.8745 244.875 19.9161 242.959 20.1078C241.962 20.2228 241.233 20.7595 240.275 20.8362C239.968 20.8362 239.776 20.7212 239.776 20.3762V19.9161C239.776 19.6094 239.891 19.3792 240.198 19.2258C244.032 17.3472 248.671 18.4208 248.556 23.4049C248.479 25.9736 248.556 28.5806 248.633 31.2644C248.633 31.456 248.556 31.5327 248.403 31.4944L246.946 31.3795C246.946 31.3795 246.754 31.3028 246.792 31.1495C246.831 30.8427 246.792 30.4977 246.677 30.191C246.486 29.7309 246.217 29.6541 245.872 30.0375C241.157 35.0599 234.601 26.2419 242.23 23.8649C243.534 23.4815 244.799 23.2898 246.102 23.3281C246.447 23.3281 246.601 23.1748 246.524 22.8681L246.486 22.9448ZM245.719 24.9767C243.649 24.9 242.192 25.4369 241.31 26.5487C240.773 27.2005 240.773 28.1588 241.31 28.8106C242.038 29.6924 242.882 29.9993 243.879 29.7309C245.872 29.1558 246.716 27.814 246.447 25.667C246.409 25.2453 246.141 25.015 245.719 24.9767Z" fill="black"/>
<path d="M36.3484 32.1462C46.7766 37.897 57.3199 43.6861 67.9782 49.4753C68.1316 49.552 68.1699 49.7055 68.0932 49.8588C68.0932 49.8588 68.0932 49.897 68.0549 49.9354L61.1538 56.7982C60.8855 57.0666 60.6554 57.0666 60.3871 56.7982L36.08 32.5678C36.08 32.5678 36.0033 32.3761 36.08 32.2994C36.195 32.1461 36.2717 32.1078 36.3484 32.1462Z" fill="black"/>
<path d="M59.4282 58.5234L34.5078 83.8274C34.1244 84.2108 33.5493 84.2108 33.1659 83.8274C32.9742 83.6357 32.8592 83.4057 32.8592 83.1373L32.5908 34.9066C32.5908 32.3379 33.4726 31.9545 35.3129 33.7565L59.4666 57.9101C59.6583 58.1018 59.6583 58.2936 59.4666 58.4853L59.4282 58.5234Z" fill="black"/>
<path d="M128.362 61.0539H117.588C117.588 61.0539 117.358 61.0156 117.358 60.8622V56.4531C117.358 56.2614 117.435 56.1464 117.627 56.1464H132.962C133.461 56.1464 133.768 56.3764 133.806 56.8748C134.688 65.8078 130.317 73.2456 121.576 75.0859C108.272 77.8847 96.3485 66.3448 100.029 52.9644C101.448 47.7886 105.742 43.0345 110.802 41.2326C117.588 38.8172 123.799 39.9289 129.435 44.6446C129.512 44.7213 129.512 44.8363 129.435 44.913L126.253 48.172C126.253 48.172 126.023 48.287 125.946 48.172C121.231 44.2997 116.362 43.7246 111.224 46.4467C103.595 50.5106 102.483 60.7856 108.31 66.8431C114.406 73.2074 127.672 71.5205 128.86 61.5907C128.899 61.2073 128.745 61.0155 128.362 61.0155V61.0539Z" fill="black"/>
<path d="M258.027 63.3157L258.142 74.6258C258.142 74.6258 258.065 74.8559 257.912 74.8559H253.311C253.311 74.8559 253.081 74.7792 253.081 74.6258L252.928 41.3858C252.928 41.1558 253.119 40.9258 253.349 40.9258C256.647 41.1175 259.982 41.1941 263.356 41.0791C266.001 41.0024 268.11 41.3475 269.72 42.1527C275.241 44.8364 277.58 51.3541 274.666 56.7983C271.177 63.3543 265.158 62.7407 258.679 62.6256C258.18 62.6256 257.95 62.8557 257.95 63.3541L258.027 63.3157ZM258.219 46.6767V57.2199C258.219 57.45 258.449 57.68 258.717 57.68H264.966C268.302 57.68 270.985 55.1495 270.947 52.044V51.814C270.947 48.7085 268.225 46.2166 264.928 46.255H258.679C258.449 46.255 258.219 46.485 258.219 46.715V46.6767Z" fill="black"/>
<path d="M217.041 41.1553H212.594C212.445 41.1553 212.325 41.2755 212.325 41.4237V74.6253C212.325 74.7735 212.445 74.8937 212.594 74.8937H217.041C217.189 74.8937 217.309 74.7735 217.309 74.6253V41.4237C217.309 41.2755 217.189 41.1553 217.041 41.1553Z" fill="black"/>
<path d="M284.478 41.1177H280.108C279.917 41.1177 279.763 41.2723 279.763 41.4628V74.5112C279.763 74.7017 279.917 74.8561 280.108 74.8561H284.478C284.669 74.8561 284.823 74.7017 284.823 74.5112V41.4628C284.823 41.2723 284.669 41.1177 284.478 41.1177Z" fill="black"/>
<path d="M78.0222 54.9197C79.2107 55.5331 80.2458 56.1849 81.1276 56.9134C82.3928 57.9869 82.2395 58.9454 80.7059 59.8656C77.2554 61.8975 73.7282 63.8912 70.0476 65.8465C69.7792 65.9998 69.5492 65.9614 69.3192 65.7313L62.2648 58.6771C61.9964 58.3704 61.9964 58.1019 62.2648 57.8335L69.3575 50.7024C69.5876 50.4341 69.8559 50.4342 70.1626 50.5876C72.6547 52.1211 75.3001 53.5395 78.0222 54.9197Z" fill="black"/>
<path d="M304.071 60.3257C305.413 60.5941 305.72 60.1723 304.953 59.0221C302.653 55.6482 299.624 54.8815 295.828 56.6834C295.061 57.0285 294.448 57.6036 293.911 58.3704C293.605 58.8305 293.183 58.9071 292.723 58.6004L289.924 56.7602C289.464 56.4535 289.425 56.0699 289.771 55.6482C293.719 51.2776 298.397 50.0508 303.841 51.9294C307.598 53.233 310.359 57.0285 310.359 60.9774C310.359 65.5014 310.359 69.9872 310.435 74.5113C310.435 74.7413 310.32 74.8946 310.052 74.8946H305.796C305.605 74.8946 305.413 74.7413 305.413 74.5496L305.49 73.1309C305.49 72.2491 305.26 72.1342 304.685 72.8243C303.151 74.5879 301.004 75.5081 298.244 75.5081C293.068 75.5081 290.231 73.1692 289.771 68.3769C289.617 66.8816 289.924 65.4248 290.652 64.0829C293.336 58.9838 299.202 59.3289 304.071 60.3641V60.3257ZM304.953 64.9648C302.193 64.1597 296.212 62.5494 295.215 66.805C294.525 69.6805 297.438 71.4057 300.007 70.639C302.576 69.8338 304.378 68.1853 305.336 65.6549C305.49 65.3099 305.336 65.0799 304.991 64.9648H304.953Z" fill="black"/>
<path d="M159.034 64.0823C159.034 70.4466 153.896 75.5841 147.532 75.5841C141.168 75.5841 136.03 70.4466 136.03 64.0823C136.03 57.718 141.168 52.5806 147.532 52.5806C153.896 52.5806 159.034 57.718 159.034 64.0823ZM147.494 71.0601C151.098 71.0601 154.011 67.993 154.011 64.1591C154.011 60.3252 151.136 57.1813 147.57 57.1813C143.966 57.1813 141.053 60.2484 141.053 64.0823C141.053 67.9162 143.928 71.0601 147.494 71.0601Z" fill="black"/>
<path d="M184.298 64.0823C184.298 70.4466 179.161 75.5841 172.797 75.5841C166.432 75.5841 161.295 70.4466 161.295 64.0823C161.295 57.718 166.432 52.5806 172.797 52.5806C179.161 52.5806 184.298 57.718 184.298 64.0823ZM172.72 71.0601C176.324 71.0984 179.276 68.0314 179.314 64.1974C179.353 60.3635 176.477 57.2197 172.912 57.1813C169.308 57.143 166.356 60.21 166.317 64.0439C166.279 67.8779 169.154 71.0217 172.72 71.0601Z" fill="black"/>
<path d="M226.239 67.3411C225.894 67.4944 225.818 67.6861 226.009 68.0311C228.425 72.4018 234.137 71.7117 236.859 68.0311C236.936 67.9161 237.051 67.8777 237.204 67.9544L240.77 70.4081C240.77 70.4081 240.885 70.5999 240.808 70.7149C238.47 73.5137 235.786 75.0855 232.68 75.3922C226.699 76.044 221.409 72.2868 220.335 66.3442C219.147 59.7882 223.134 53.0788 230.073 52.6571C235.594 52.312 239.045 55.8393 240.923 60.5933C241.077 60.9384 240.962 61.2068 240.617 61.3602L226.278 67.3027L226.239 67.3411ZM225.243 63.6988L235.211 59.4048C234.329 57.2962 231.415 56.5294 228.731 57.7179L228.501 57.8328C225.818 58.983 224.361 61.5901 225.243 63.6604V63.7372V63.6988Z" fill="black"/>
<path d="M324.657 67.1497L330.945 52.8876C330.945 52.8876 331.098 52.7344 331.175 52.7344H336.082C336.082 52.7344 336.351 52.811 336.351 52.9644C336.351 53.0027 336.351 53.041 336.351 53.0793L322.012 85.7443C322.012 85.7443 321.859 85.8976 321.744 85.8976H316.836C316.836 85.8976 316.568 85.7826 316.568 85.6292C316.568 85.6292 316.568 85.5527 316.568 85.5143L321.629 74.0891C321.629 74.0891 321.629 73.9357 321.629 73.8591L312.504 53.1177C312.504 53.1177 312.504 52.8109 312.657 52.7725C312.657 52.7725 312.734 52.7725 312.772 52.7725H317.718C317.718 52.7725 317.948 52.811 317.986 52.926L324.197 67.2265C324.197 67.2265 324.427 67.4181 324.542 67.3797C324.619 67.3797 324.657 67.3031 324.696 67.2265L324.657 67.1497Z" fill="black"/>
<path d="M203.582 54.7661C203.735 54.5744 203.774 54.3444 203.735 54.076C203.659 53.5392 203.889 53.3092 204.387 53.3092H207.876C208.336 53.3092 208.566 53.5775 208.566 54.0376C208.451 59.7118 208.451 65.2327 208.566 70.6002C208.643 75.0475 208.221 78.2296 207.224 80.1466C205.345 83.9422 202.087 85.8209 197.486 85.7826C193.23 85.7442 189.895 83.5971 187.518 79.3797C187.441 79.2647 187.518 79.0731 187.594 78.9964L191.505 77.2711C191.505 77.2711 191.812 77.2713 191.888 77.4246C193.69 81.4886 198.521 82.5619 201.933 79.6481C202.892 78.8047 203.467 77.7314 203.582 76.4662L203.774 74.3957C203.889 73.2072 203.467 73.0156 202.547 73.744C200.055 75.7376 197.141 76.1211 193.805 74.7792C181.46 69.9485 186.061 50.8172 199.48 52.8875C200.86 53.1175 202.01 53.7309 202.968 54.8044C203.122 54.9578 203.352 54.9961 203.543 54.8044C203.543 54.8044 203.582 54.766 203.62 54.7277L203.582 54.7661ZM197.716 71.0602C201.205 71.0985 204.042 68.0315 204.119 64.1976C204.195 60.3637 201.396 57.2197 197.946 57.1431C194.457 57.1047 191.62 60.172 191.543 64.0059C191.467 67.8398 194.265 70.9835 197.716 71.0602Z" fill="black"/>
<path d="M67.975 66.9583L37.3804 83.7509C36.4986 84.2493 36.3835 84.1344 37.0737 83.4059L60.4989 59.674C60.7289 59.444 60.9589 59.444 61.189 59.674L68.0517 66.4982C68.0517 66.4982 68.1667 66.7668 68.0517 66.8818C68.0517 66.8818 68.0134 66.8816 67.975 66.9199V66.9583Z" fill="black"/>
</svg>
