<svg width="360" height="101" viewBox="0 0 360 101" fill="none" xmlns="http://www.w3.org/2000/svg">
<path d="M359.815 10.191V90.2813C358.397 94.4986 355.866 97.4508 352.263 99.1377C350.384 100.019 348.505 100.441 346.627 100.441C234.791 100.441 123.914 100.441 14.0343 100.441C6.32815 100.441 0.117188 95.9557 0.117188 87.7894C0.117188 63.8274 0.117188 38.6768 0.117188 12.4145C0.117188 4.28658 7.67002 0.222656 14.8394 0.222656C124.643 0.299335 234.446 0.299335 344.211 0.222656C348.007 0.222656 350.882 0.682708 352.914 1.64119C356.327 3.25143 358.665 6.08869 359.892 10.191H359.815ZM356.327 13.2581C356.327 8.15896 352.186 4.0182 347.125 4.0182H12.9608C7.86172 4.0182 3.75943 8.15896 3.75943 13.2581V87.521C3.75943 92.6201 7.90006 96.7607 12.9608 96.7607H347.125C352.224 96.7607 356.327 92.6201 356.327 87.521V13.2581Z" fill="black"/>
<path d="M81.1284 27.5972C80.1699 19.5843 86.9943 13.22 94.2021 11.8398C94.4704 11.8015 94.7388 11.9547 94.7772 12.2231C94.7772 12.2231 94.7772 12.2232 94.7772 12.2615C95.2756 20.121 89.4097 27.1754 81.8185 28.0956C81.3968 28.1339 81.1668 27.9805 81.1284 27.5588V27.5972Z" fill="black"/>
<path d="M248.057 15.2896H249.629C249.859 15.2896 250.051 15.4814 250.051 15.7115V33.6158C250.051 33.8458 249.859 34.0375 249.629 34.0375H248.057C247.827 34.0375 247.636 33.8458 247.636 33.6158V15.7115C247.636 15.4814 247.827 15.2896 248.057 15.2896Z" fill="black"/>
<path d="M137.794 16.7856C137.794 16.2489 138.216 15.8271 138.714 15.8271H143.545C148.261 15.8271 152.094 19.4694 152.094 23.9934V25.642C152.094 30.166 148.299 33.885 143.583 33.885H138.752C138.254 33.885 137.832 33.4633 137.832 32.9649V16.7473L137.794 16.7856ZM140.133 18.2809V31.4312C140.133 31.8913 140.478 32.2364 140.938 32.2364H143.161C146.919 32.2364 149.986 29.2076 149.986 25.4503V24.2618C149.986 20.5046 146.957 17.4757 143.2 17.4757H140.976C140.516 17.4757 140.171 17.8208 140.171 18.2809H140.133Z" fill="black"/>
<path d="M156.426 18.6641C157.188 18.6641 157.806 18.0462 157.806 17.284C157.806 16.5217 157.188 15.9038 156.426 15.9038C155.664 15.9038 155.046 16.5217 155.046 17.284C155.046 18.0462 155.664 18.6641 156.426 18.6641Z" fill="black"/>
<path d="M218.23 15.8652H219.955C219.955 15.8652 220.262 15.9803 220.262 16.172C220.262 16.2487 220.262 16.3253 220.185 16.3637L217.348 19.5075C217.348 19.5075 217.195 19.6224 217.118 19.6224H216.121C216.121 19.6224 215.814 19.5075 215.814 19.3159C215.814 19.2392 215.814 19.2007 215.853 19.1623L217.961 16.0185C217.961 16.0185 218.115 15.9036 218.191 15.9036L218.23 15.8652Z" fill="black"/>
<path d="M174.444 32.8111L174.559 38.6771C174.559 38.6771 174.444 38.9455 174.291 38.9455H172.527C172.527 38.9455 172.259 38.8688 172.259 38.6771V21.4244C172.259 21.1177 172.374 20.9644 172.681 20.926L173.601 20.8109C173.984 20.7725 174.176 20.9259 174.176 21.3093V22.6895C174.099 23.1495 174.252 23.2264 174.559 22.8814C177.55 19.5842 182.38 20.5043 183.646 24.7599C185.371 30.4725 180.847 36.8367 174.866 32.581C174.597 32.3893 174.482 32.466 174.482 32.7727L174.444 32.8111ZM177.895 32.3894C179.965 32.4277 181.69 30.2807 181.767 27.5586C181.844 24.8365 180.233 22.5745 178.163 22.5362C176.093 22.4979 174.367 24.6449 174.291 27.367C174.214 30.0891 175.824 32.3127 177.895 32.3894Z" fill="black"/>
<path d="M203.967 22.7278C207.226 19.3156 211.865 21.0409 212.019 25.6416C212.095 28.1337 212.134 30.7791 212.095 33.5778C212.095 33.8846 211.942 34.0379 211.635 34.0379H210.255C209.91 34.0379 209.757 33.8461 209.757 33.5011V25.9868C209.795 24.4149 209.066 23.3413 207.571 22.8045C207.073 22.6129 206.574 22.6513 206.114 22.9197C204.581 23.8015 203.852 25.1049 203.852 26.8685V33.5778C203.852 33.8462 203.737 33.9995 203.469 33.9995H202.127C201.705 33.9995 201.514 33.8079 201.514 33.3862V21.3476C201.514 21.1176 201.629 20.9643 201.859 20.926L203.047 20.7725C203.316 20.7725 203.469 20.8493 203.469 21.156V22.4978C203.469 22.9962 203.622 23.0728 203.967 22.6894V22.7278Z" fill="black"/>
<path d="M157.308 20.9644H155.621C155.452 20.9644 155.314 21.1015 155.314 21.2709V33.6546C155.314 33.824 155.452 33.9612 155.621 33.9612H157.308C157.477 33.9612 157.615 33.824 157.615 33.6546V21.2709C157.615 21.1015 157.477 20.9644 157.308 20.9644Z" fill="black"/>
<path d="M163.748 23.0729C163.057 23.418 162.789 24.2998 163.172 24.9899C163.326 25.2583 163.517 25.4882 163.786 25.6032C165.588 26.485 169.077 27.482 169.038 30.0507C169 34.0763 164.246 34.6129 161.294 33.5011C160.872 33.3477 160.642 32.8878 160.719 32.4661L160.795 32.0442C160.949 31.4691 161.255 31.3157 161.792 31.5841C163.633 32.6193 165.166 32.5811 166.431 31.4692C167.045 30.9325 167.121 29.974 166.546 29.3606C166.431 29.2456 166.316 29.1689 166.201 29.0922C165.319 28.5555 164.438 28.1336 163.479 27.7886C161.179 26.9835 159.837 24.2998 161.754 22.3445C163.249 20.8493 165.281 20.5042 167.85 21.3476C168.425 21.5393 168.617 21.9227 168.348 22.4978L168.195 22.8429C168.08 23.1113 167.773 23.2263 167.466 23.1113C166.086 22.4979 164.821 22.4979 163.671 23.1113L163.748 23.0729Z" fill="black"/>
<path d="M191.506 34.0378C188.094 33.6544 185.64 30.4339 186.024 26.7917C186.407 23.1494 189.474 20.5041 192.887 20.8875C196.299 21.2709 198.752 24.4915 198.369 28.1337C197.986 31.7759 194.918 34.4212 191.506 34.0378ZM192.158 32.3125C194.305 32.3125 196.107 30.1655 196.145 27.4817C196.145 24.798 194.458 22.5744 192.311 22.5361C190.164 22.5361 188.362 24.6831 188.324 27.3668C188.324 30.0506 190.011 32.2742 192.158 32.3125Z" fill="black"/>
<path d="M217.885 20.9644H216.122C215.974 20.9644 215.854 21.0845 215.854 21.2328V33.7311C215.854 33.8794 215.974 33.9995 216.122 33.9995H217.885C218.034 33.9995 218.154 33.8794 218.154 33.7311V21.2328C218.154 21.0845 218.034 20.9644 217.885 20.9644Z" fill="black"/>
<path d="M226.396 30.9325C226.588 31.5843 226.818 31.5843 227.009 30.9325L230.153 21.1561C230.153 21.1561 230.345 20.8877 230.536 20.8877L232.453 21.0028C232.453 21.0028 232.607 21.0411 232.568 21.1561L227.853 33.5012C227.738 33.7696 227.546 33.9229 227.278 33.9996C226.856 34.0763 226.434 34.0763 226.012 33.9996C225.667 33.9613 225.437 33.7697 225.322 33.4247L220.875 21.3094C220.875 21.3094 220.875 20.9644 221.067 20.8877C221.067 20.8877 221.143 20.8877 221.182 20.8877H222.6C222.984 20.8877 223.214 21.0411 223.329 21.3861L226.396 30.8942V30.9325Z" fill="black"/>
<path d="M236.975 28.2481C235.709 28.2481 235.403 28.7848 236.055 29.8967L236.361 30.3951C237.128 31.6603 238.24 32.2737 239.697 32.312C240.962 32.312 242.15 32.1587 243.301 31.8136C243.569 31.7369 243.799 31.8136 243.914 32.082L244.029 32.3504C244.259 32.8872 244.106 33.2323 243.569 33.424C231.032 37.6413 230.955 20.0052 240.387 20.887C242.15 21.0404 243.377 21.9604 243.991 23.6473C244.336 24.5291 244.604 25.2576 244.834 25.8327C245.448 27.443 244.911 28.2097 243.224 28.2097H237.051L236.975 28.2481ZM236.208 26.4846H242.496C242.496 26.4846 242.726 26.3312 242.726 26.1779V26.0246C242.726 24.1076 241.192 22.6124 239.352 22.6124H239.237C237.396 22.6124 235.901 24.1841 235.94 26.0627V26.2162C235.94 26.3696 236.055 26.4463 236.17 26.4463L236.208 26.4846Z" fill="black"/>
<path d="M262.741 22.5746C265.846 19.5074 270.293 20.7725 270.638 25.3349C270.83 27.8269 270.83 30.5491 270.715 33.5779C270.715 33.8846 270.562 33.9996 270.255 33.9996H268.721C268.53 33.9229 268.415 33.808 268.415 33.6163V25.9484C268.415 24.2999 267.648 23.1879 266.076 22.6895C265.769 22.5745 265.463 22.6128 265.156 22.6895C263.354 23.4179 262.472 24.76 262.472 26.7153L262.549 33.4246C262.549 33.7313 262.396 33.8847 262.089 33.8847H260.632C260.325 33.8847 260.172 33.7697 260.172 33.463V21.2709C260.172 20.9642 260.325 20.8109 260.632 20.8109H261.59C261.974 20.7725 262.127 20.9259 262.127 21.3093V22.2294C262.127 22.8045 262.319 22.8812 262.741 22.4978V22.5746Z" fill="black"/>
<path d="M280.606 32.6194C276.351 36.6833 270.447 30.9326 274.971 27.4437C276.542 26.2552 278.421 25.7183 280.645 25.91C280.913 25.91 281.182 25.7183 281.22 25.45C281.22 25.3733 281.22 25.335 281.22 25.2583C280.491 22.5362 278.536 21.8461 275.316 23.2646C275.009 23.418 274.779 23.3029 274.664 22.9578L274.587 22.6894C274.434 22.2294 274.664 21.731 275.124 21.5393C278.881 20.1208 283.098 20.6576 283.213 25.7184C283.29 28.1337 283.329 30.7407 283.367 33.5395C283.367 33.8462 283.214 33.9995 282.907 33.9995H282.063C281.718 33.9995 281.412 33.7313 281.412 33.3862V32.8494C281.297 32.2743 281.067 32.1976 280.645 32.581L280.606 32.6194ZM275.699 29.8591C275.469 30.8942 276.121 31.9677 277.156 32.1977C277.156 32.1977 277.156 32.1977 277.194 32.1977C279.993 32.8111 281.718 30.3575 281.105 27.7121C281.067 27.4821 280.913 27.4053 280.683 27.3669C278.958 27.3286 276.159 27.7887 275.699 29.8207V29.8591Z" fill="black"/>
<path d="M109.92 61.8724C110.15 61.9875 110.419 62.1025 110.687 62.1408C111.07 62.2559 111.185 62.4475 111.032 62.8309C108.08 69.5403 104.591 74.6394 100.604 78.205C97.6133 80.8504 94.0095 81.5787 90.4439 79.7384C85.7282 77.2847 80.6674 77.3231 75.1849 79.8535C72.0411 81.3104 69.089 81.0037 66.3286 78.895C60.4627 74.486 56.6287 67.1248 54.3284 60.0704C50.9929 49.7571 51.2613 37.642 60.2326 30.6643C64.4883 27.3671 70.0858 26.1402 75.2233 28.2489C79.2489 29.9358 82.5077 31.6227 86.9167 29.6674C88.2969 29.054 89.6388 28.5173 90.9423 28.0573C98.2268 25.5269 104.169 28.6707 108.847 34.3066C109.115 34.6133 109.077 34.9201 108.732 35.1118C98.4184 41.7061 98.9935 56.2365 109.882 61.7957L109.92 61.8724Z" fill="black"/>
<path d="M142.433 65.5904L140.477 72.4149C140.477 72.4149 140.324 72.6449 140.171 72.6449L135.838 72.7601C135.838 72.7601 135.532 72.645 135.493 72.4533C135.493 72.415 135.493 72.3765 135.493 72.3382L143.698 46.1143C143.698 46.1143 143.851 45.8843 144.004 45.8843H149.602C149.602 45.8843 149.87 45.9609 149.909 46.1143L158.228 72.3382C158.228 72.3382 158.19 72.6834 158.037 72.7217H157.96H153.513C153.513 72.7217 153.244 72.7215 153.206 72.5682L150.982 65.5139C150.982 65.5139 150.829 65.2839 150.675 65.2839H142.701C142.701 65.2839 142.433 65.3989 142.394 65.5139L142.433 65.5904ZM147.033 50.4466C147.033 50.4466 146.842 50.2164 146.688 50.2548C146.612 50.2548 146.535 50.37 146.496 50.4466L143.468 61.4116C143.468 61.4116 143.506 61.7182 143.659 61.7565C143.659 61.7565 143.698 61.7565 143.736 61.7565H149.87C149.87 61.7565 150.139 61.6417 150.139 61.4883C150.139 61.4883 150.139 61.4499 150.139 61.4116L147.033 50.4466Z" fill="black"/>
<path d="M224.362 69.387C227.467 69.042 229.423 65.3612 226.585 63.2142C225.435 62.3324 224.093 61.6424 222.56 61.144C219.224 60.0705 215.774 57.2333 216.004 53.361C216.464 45.6549 225.474 44.8881 231.301 47.1501C231.531 47.2268 231.608 47.3801 231.531 47.6102L230.534 50.8691C230.458 51.0992 230.343 51.1758 230.113 51.0608C226.739 49.4889 223.978 49.4505 221.831 50.984C219.416 52.7093 221.218 55.6615 223.442 56.5433C228.234 58.3835 233.601 60.6073 232.451 66.9333C231.071 74.4477 221.333 74.4094 215.774 71.9557C215.62 71.879 215.544 71.7639 215.582 71.6105L216.502 68.0066C216.502 68.0066 216.617 67.8534 216.694 67.9301C219.109 69.1953 221.64 69.6937 224.323 69.387H224.362Z" fill="black"/>
<path d="M238.126 52.9393L238.049 49.7954C238.049 49.412 238.241 49.1438 238.624 49.0288L241.845 48.1085C242.458 47.9551 242.727 48.1854 242.727 48.7988L242.573 52.8627C242.573 53.1695 242.803 53.3993 243.072 53.4377H246.675C247.021 53.4377 247.212 53.6294 247.174 53.9745V56.4666C247.136 56.8884 246.906 57.08 246.484 57.08H243.11C242.727 57.0033 242.535 57.195 242.535 57.6168C242.612 60.4539 242.612 63.4058 242.535 66.5496C242.496 68.965 244.452 70.4987 246.752 69.3102C246.829 69.3102 246.906 69.3102 246.944 69.3485C246.944 69.3485 246.944 69.3867 246.944 69.4251V72.7608C246.944 72.7608 246.867 73.029 246.714 73.1057C242.075 74.4476 237.972 72.8756 238.011 67.5465C238.011 64.0959 238.011 60.7988 238.011 57.6933C238.011 57.2715 237.819 57.08 237.397 57.08H236.017C235.557 57.1183 235.327 56.8883 235.327 56.4283V54.0512C235.289 53.6679 235.48 53.4761 235.825 53.4761H237.627C237.934 53.4377 238.088 53.2843 238.088 52.9393H238.126Z" fill="black"/>
<path d="M166.279 56.4283C166.969 55.7382 167.582 54.9714 168.502 54.5497C180.004 49.1055 184.643 65.9364 177.052 71.8023C174.215 73.9876 169.729 74.3325 167.122 71.5721C166.585 70.997 166.317 71.112 166.317 71.8788L166.432 79.9683C166.432 80.2751 166.279 80.3902 166.01 80.3902H162.1C161.755 80.3902 161.563 80.1985 161.563 79.8534C161.64 73.3741 161.678 66.3963 161.64 58.9585C161.64 56.9266 161.525 55.3163 161.333 54.1278C161.256 53.706 161.448 53.4761 161.87 53.4761H165.014C165.397 53.4761 165.742 53.7828 165.742 54.2045L165.665 56.1215C165.665 56.6966 165.857 56.7733 166.279 56.3899V56.4283ZM175.787 61.7191C175.825 59.3421 173.947 57.3483 171.57 57.31H170.879C168.502 57.2333 166.509 59.1502 166.47 61.5272L166.394 65.2462C166.355 67.6233 168.234 69.6168 170.611 69.6551H171.301C173.678 69.7318 175.672 67.8149 175.71 65.4379L175.787 61.7191Z" fill="black"/>
<path d="M190.588 71.649L190.742 79.892C190.742 80.1604 190.627 80.3137 190.32 80.3137C187.751 80.3904 186.448 80.3905 186.448 80.3905C186.179 80.3905 185.911 80.1604 185.911 79.892C185.949 71.4191 185.988 63.6746 185.949 56.6969C185.949 55.8534 185.834 55.0098 185.643 54.1664C185.528 53.6679 185.719 53.4379 186.218 53.4763H189.438C189.822 53.5146 190.09 53.8213 190.09 54.2047C190.09 54.2047 190.09 54.2048 190.09 54.2431L189.975 55.3932C189.86 56.6201 190.243 56.7735 191.087 55.93C193.196 53.8597 195.611 53.1312 198.333 53.7063C207.074 55.4699 207.228 70.1537 199.176 73.0292C196.109 74.1027 193.426 73.566 191.125 71.419C190.703 71.0356 190.512 71.1123 190.512 71.6874L190.588 71.649ZM195.189 69.9237C197.911 70.0004 200.212 67.2016 200.327 63.6744C200.442 60.1472 198.295 57.1952 195.573 57.1185C192.85 57.0419 190.55 59.8406 190.435 63.3678C190.32 66.8951 192.467 69.847 195.189 69.9237Z" fill="black"/>
<path d="M256.915 73.4507C251.586 72.5306 248.059 67.3547 248.979 61.8338C249.899 56.313 254.96 52.5942 260.289 53.5143C265.618 54.4344 269.145 59.6101 268.225 65.1309C267.305 70.6518 262.244 74.3709 256.915 73.4507ZM258.602 70.1152C261.247 70.1152 263.394 67.1629 263.394 63.4824C263.394 59.8402 261.247 56.8498 258.602 56.8498C255.957 56.8498 253.81 59.8018 253.81 63.4824C253.81 67.1629 255.957 70.1152 258.602 70.1152Z" fill="black"/>
<path d="M276.544 57.003C277.847 54.4343 279.841 53.2458 282.525 53.4759C282.716 53.4759 282.831 53.591 282.831 53.821V57.8082C282.831 57.8082 282.716 58.0382 282.601 58.0382C278.844 57.6549 276.927 59.3418 276.851 63.0607C276.774 65.9745 276.812 69.1182 276.927 72.5303C276.927 72.722 276.851 72.7987 276.659 72.7987H272.365C272.096 72.7987 271.981 72.6838 271.981 72.4154C272.211 66.4345 272.173 60.1851 271.981 53.6291C271.981 53.5141 272.02 53.4375 272.135 53.4375H276.084C276.084 53.4375 276.275 53.5525 276.237 53.7059C276.045 54.7411 276.007 55.7762 276.084 56.8497C276.122 57.5015 276.314 57.5397 276.62 56.9646L276.544 57.003Z" fill="black"/>
<path d="M290.92 64.7088C289.54 64.7088 289.195 65.284 289.962 66.4725C290.154 66.7792 290.345 67.0859 290.537 67.3926C291.38 68.6961 292.722 69.5779 294.256 69.808C296.364 70.1147 298.55 69.8846 300.773 69.0795C300.965 69.0028 301.08 69.0795 301.119 69.2712L301.655 72.1082C301.655 72.1082 301.655 72.3382 301.502 72.3382C297.63 73.6801 294.141 73.7953 290.997 72.7602C285.093 70.7665 283.981 63.482 286.358 58.5362C287.968 55.2007 290.69 53.5138 294.562 53.4754C300.582 53.3988 303.227 58.6129 302.729 64.0187C302.729 64.4021 302.384 64.7088 302 64.7088H290.997H290.92ZM290.192 61.4117L298.051 61.2966C298.051 61.2966 298.32 61.1815 298.32 61.0281V60.8749C298.32 58.5362 296.403 56.696 294.102 56.696H294.026C291.725 56.696 289.923 58.6513 289.923 60.99V61.1433C289.923 61.1433 290.038 61.4117 290.192 61.4117Z" fill="black"/>
</svg>
