<svg width="360" height="101" viewBox="0 0 360 101" fill="none" xmlns="http://www.w3.org/2000/svg">
<path d="M359.811 10.191V90.2813C358.393 94.4986 355.863 97.4508 352.259 99.1377C350.38 100.019 348.501 100.441 346.623 100.441C234.787 100.441 123.911 100.441 14.0304 100.441C6.32425 100.441 0.113281 95.9557 0.113281 87.7894C0.113281 63.8274 0.113281 38.6768 0.113281 12.4145C0.113281 4.28658 7.66611 0.222656 14.8355 0.222656C124.639 0.299335 234.442 0.299335 344.207 0.222656C348.003 0.222656 350.878 0.682708 352.91 1.64119C356.323 3.25143 358.661 6.08869 359.888 10.191H359.811ZM356.323 13.2581C356.323 8.15896 352.182 4.0182 347.121 4.0182H12.9569C7.85782 4.0182 3.75552 8.15896 3.75552 13.2581V87.521C3.75552 92.6201 7.89616 96.7607 12.9569 96.7607H347.121C352.22 96.7607 356.323 92.6201 356.323 87.521V13.2581Z" fill="white"/>
<path d="M81.1243 27.5973C80.1659 19.5844 86.9902 13.2201 94.198 11.8399C94.4664 11.8016 94.7347 11.9549 94.7731 12.2232C94.7731 12.2232 94.7731 12.2233 94.7731 12.2616C95.2715 20.1211 89.4056 27.1756 81.8144 28.0957C81.3927 28.1341 81.1627 27.9806 81.1243 27.5589V27.5973Z" fill="white"/>
<path d="M248.054 15.2898H249.625C249.856 15.2898 250.047 15.4817 250.047 15.7117V33.616C250.047 33.8461 249.856 34.0377 249.625 34.0377H248.054C247.824 34.0377 247.632 33.8461 247.632 33.616V15.7117C247.632 15.4817 247.824 15.2898 248.054 15.2898Z" fill="white"/>
<path d="M137.79 16.7856C137.79 16.2489 138.212 15.8271 138.71 15.8271H143.541C148.257 15.8271 152.091 19.4694 152.091 23.9934V25.642C152.091 30.166 148.295 33.885 143.579 33.885H138.749C138.25 33.885 137.828 33.4633 137.828 32.9649V16.7473L137.79 16.7856ZM140.129 18.2809V31.4312C140.129 31.8913 140.474 32.2364 140.934 32.2364H143.158C146.915 32.2364 149.982 29.2076 149.982 25.4503V24.2618C149.982 20.5046 146.953 17.4757 143.196 17.4757H140.972C140.512 17.4757 140.167 17.8208 140.167 18.2809H140.129Z" fill="white"/>
<path d="M156.422 18.6641C157.184 18.6641 157.802 18.0462 157.802 17.2839C157.802 16.5216 157.184 15.9037 156.422 15.9037C155.66 15.9037 155.042 16.5216 155.042 17.2839C155.042 18.0462 155.66 18.6641 156.422 18.6641Z" fill="white"/>
<path d="M218.226 15.8654H219.951C219.951 15.8654 220.258 15.9805 220.258 16.1722C220.258 16.2489 220.258 16.3255 220.181 16.3638L217.344 19.5077C217.344 19.5077 217.191 19.6226 217.114 19.6226H216.117C216.117 19.6226 215.811 19.5077 215.811 19.316C215.811 19.2394 215.811 19.2009 215.849 19.1625L217.958 16.0187C217.958 16.0187 218.111 15.9038 218.188 15.9038L218.226 15.8654Z" fill="white"/>
<path d="M174.44 32.811L174.555 38.677C174.555 38.677 174.44 38.9454 174.287 38.9454H172.523C172.523 38.9454 172.255 38.8687 172.255 38.677V21.4244C172.255 21.1177 172.37 20.9643 172.677 20.926L173.597 20.8108C173.98 20.7725 174.172 20.9259 174.172 21.3093V22.6894C174.095 23.1495 174.249 23.2263 174.555 22.8813C177.546 19.5841 182.377 20.5042 183.642 24.7599C185.367 30.4724 180.843 36.8366 174.862 32.581C174.594 32.3893 174.479 32.4659 174.479 32.7726L174.44 32.811ZM177.891 32.3893C179.961 32.4277 181.686 30.2806 181.763 27.5586C181.84 24.8365 180.23 22.5745 178.159 22.5361C176.089 22.4978 174.364 24.6448 174.287 27.3669C174.21 30.089 175.821 32.3127 177.891 32.3893Z" fill="white"/>
<path d="M203.963 22.7278C207.222 19.3156 211.861 21.0409 212.015 25.6416C212.091 28.1337 212.13 30.7791 212.091 33.5778C212.091 33.8846 211.938 34.0379 211.631 34.0379H210.251C209.906 34.0379 209.753 33.8461 209.753 33.5011V25.9868C209.791 24.4149 209.063 23.3413 207.567 22.8045C207.069 22.6129 206.571 22.6513 206.11 22.9197C204.577 23.8015 203.848 25.1049 203.848 26.8685V33.5778C203.848 33.8462 203.733 33.9995 203.465 33.9995H202.123C201.701 33.9995 201.51 33.8079 201.51 33.3862V21.3476C201.51 21.1176 201.625 20.9643 201.855 20.926L203.043 20.7725C203.312 20.7725 203.465 20.8493 203.465 21.156V22.4978C203.465 22.9962 203.618 23.0728 203.963 22.6894V22.7278Z" fill="white"/>
<path d="M157.304 20.9641H155.617C155.448 20.9641 155.31 21.1013 155.31 21.2707V33.6544C155.31 33.8238 155.448 33.9609 155.617 33.9609H157.304C157.473 33.9609 157.611 33.8238 157.611 33.6544V21.2707C157.611 21.1013 157.473 20.9641 157.304 20.9641Z" fill="white"/>
<path d="M163.744 23.0729C163.053 23.418 162.785 24.2998 163.169 24.9899C163.322 25.2583 163.514 25.4882 163.782 25.6032C165.584 26.485 169.073 27.482 169.034 30.0507C168.996 34.0763 164.242 34.6129 161.29 33.5011C160.868 33.3477 160.638 32.8878 160.715 32.4661L160.791 32.0442C160.945 31.4691 161.252 31.3157 161.788 31.5841C163.629 32.6193 165.162 32.5811 166.427 31.4692C167.041 30.9325 167.117 29.974 166.542 29.3606C166.427 29.2456 166.312 29.1689 166.197 29.0922C165.316 28.5555 164.434 28.1336 163.475 27.7886C161.175 26.9835 159.833 24.2998 161.75 22.3445C163.245 20.8493 165.277 20.5042 167.846 21.3476C168.421 21.5393 168.613 21.9227 168.344 22.4978L168.191 22.8429C168.076 23.1113 167.769 23.2263 167.463 23.1113C166.082 22.4979 164.817 22.4979 163.667 23.1113L163.744 23.0729Z" fill="white"/>
<path d="M191.502 34.0378C188.09 33.6544 185.637 30.4339 186.02 26.7917C186.403 23.1494 189.47 20.5041 192.883 20.8875C196.295 21.2709 198.749 24.4915 198.365 28.1337C197.982 31.7759 194.915 34.4212 191.502 34.0378ZM192.154 32.3125C194.301 32.3125 196.103 30.1655 196.141 27.4817C196.141 24.798 194.455 22.5744 192.308 22.5361C190.161 22.5361 188.359 24.6831 188.32 27.3668C188.32 30.0506 190.007 32.2742 192.154 32.3125Z" fill="white"/>
<path d="M217.882 20.9641H216.118C215.97 20.9641 215.85 21.0843 215.85 21.2325V33.7309C215.85 33.8791 215.97 33.9993 216.118 33.9993H217.882C218.03 33.9993 218.15 33.8791 218.15 33.7309V21.2325C218.15 21.0843 218.03 20.9641 217.882 20.9641Z" fill="white"/>
<path d="M226.392 30.9325C226.584 31.5843 226.814 31.5843 227.005 30.9325L230.149 21.1561C230.149 21.1561 230.341 20.8877 230.533 20.8877L232.45 21.0028C232.45 21.0028 232.603 21.0411 232.565 21.1561L227.849 33.5012C227.734 33.7696 227.542 33.9229 227.274 33.9996C226.852 34.0763 226.43 34.0763 226.009 33.9996C225.663 33.9613 225.433 33.7697 225.318 33.4247L220.871 21.3094C220.871 21.3094 220.871 20.9644 221.063 20.8877C221.063 20.8877 221.139 20.8877 221.178 20.8877H222.596C222.98 20.8877 223.21 21.0411 223.325 21.3861L226.392 30.8942V30.9325Z" fill="white"/>
<path d="M236.971 28.2481C235.706 28.2481 235.399 28.7848 236.051 29.8967L236.357 30.3951C237.124 31.6603 238.236 32.2737 239.693 32.312C240.958 32.312 242.147 32.1587 243.297 31.8136C243.565 31.7369 243.795 31.8136 243.91 32.082L244.025 32.3504C244.255 32.8872 244.102 33.2323 243.565 33.424C231.028 37.6413 230.952 20.0052 240.383 20.887C242.147 21.0404 243.373 21.9604 243.987 23.6473C244.332 24.5291 244.6 25.2576 244.83 25.8327C245.444 27.443 244.907 28.2097 243.22 28.2097H237.047L236.971 28.2481ZM236.204 26.4846H242.492C242.492 26.4846 242.722 26.3312 242.722 26.1779V26.0246C242.722 24.1076 241.188 22.6124 239.348 22.6124H239.233C237.392 22.6124 235.897 24.1841 235.936 26.0627V26.2162C235.936 26.3696 236.051 26.4463 236.166 26.4463L236.204 26.4846Z" fill="white"/>
<path d="M262.737 22.5745C265.842 19.5074 270.289 20.7725 270.634 25.3348C270.826 27.8269 270.826 30.549 270.711 33.5778C270.711 33.8846 270.558 33.9995 270.251 33.9995H268.717C268.526 33.9228 268.411 33.8079 268.411 33.6162V25.9484C268.411 24.2998 267.644 23.1878 266.072 22.6894C265.765 22.5744 265.459 22.6127 265.152 22.6894C263.35 23.4179 262.468 24.7599 262.468 26.7152L262.545 33.4246C262.545 33.7313 262.392 33.8846 262.085 33.8846H260.628C260.321 33.8846 260.168 33.7697 260.168 33.4629V21.2709C260.168 20.9642 260.321 20.8108 260.628 20.8108H261.586C261.97 20.7725 262.123 20.9259 262.123 21.3093V22.2294C262.123 22.8044 262.315 22.8812 262.737 22.4978V22.5745Z" fill="white"/>
<path d="M280.603 32.6194C276.347 36.6834 270.443 30.9326 274.967 27.4437C276.539 26.2552 278.417 25.7184 280.641 25.9101C280.909 25.9101 281.178 25.7184 281.216 25.45C281.216 25.3734 281.216 25.3351 281.216 25.2584C280.488 22.5363 278.532 21.8461 275.312 23.2647C275.005 23.418 274.775 23.3029 274.66 22.9579L274.584 22.6895C274.43 22.2294 274.66 21.7311 275.12 21.5394C278.878 20.1208 283.095 20.6577 283.21 25.7184C283.287 28.1338 283.325 30.7408 283.363 33.5395C283.363 33.8463 283.21 33.9996 282.903 33.9996H282.06C281.715 33.9996 281.408 33.7313 281.408 33.3863V32.8495C281.293 32.2744 281.063 32.1977 280.641 32.5811L280.603 32.6194ZM275.695 29.8591C275.465 30.8943 276.117 31.9677 277.152 32.1978C277.152 32.1978 277.152 32.1978 277.191 32.1978C279.989 32.8112 281.715 30.3576 281.101 27.7122C281.063 27.4821 280.91 27.4053 280.679 27.367C278.954 27.3287 276.155 27.7888 275.695 29.8208V29.8591Z" fill="white"/>
<path d="M109.916 61.8723C110.146 61.9873 110.415 62.1023 110.683 62.1407C111.066 62.2557 111.181 62.4473 111.028 62.8307C108.076 69.5401 104.587 74.6392 100.6 78.2048C97.6094 80.8502 94.0056 81.5785 90.44 79.7382C85.7243 77.2845 80.6635 77.3229 75.181 79.8533C72.0372 81.3102 69.0851 81.0035 66.3247 78.8949C60.4588 74.4859 56.6248 67.1246 54.3245 60.0702C50.989 49.757 51.2574 37.6418 60.2287 30.6641C64.4844 27.3669 70.0819 26.1401 75.2194 28.2487C79.245 29.9356 82.5038 31.6225 86.9128 29.6673C88.293 29.0538 89.6349 28.5171 90.9384 28.0571C98.2229 25.5267 104.165 28.6705 108.843 34.3064C109.111 34.6131 109.073 34.9199 108.728 35.1116C98.4145 41.7059 98.9896 56.2363 109.878 61.7955L109.916 61.8723Z" fill="white"/>
<path d="M142.429 65.5904L140.473 72.4149C140.473 72.4149 140.32 72.6449 140.167 72.6449L135.834 72.7601C135.834 72.7601 135.528 72.645 135.489 72.4533C135.489 72.415 135.489 72.3765 135.489 72.3382L143.694 46.1143C143.694 46.1143 143.847 45.8843 144.001 45.8843H149.598C149.598 45.8843 149.866 45.9609 149.905 46.1143L158.224 72.3382C158.224 72.3382 158.186 72.6834 158.033 72.7217H157.956H153.509C153.509 72.7217 153.24 72.7215 153.202 72.5682L150.978 65.5139C150.978 65.5139 150.825 65.2839 150.672 65.2839H142.697C142.697 65.2839 142.429 65.3989 142.39 65.5139L142.429 65.5904ZM147.029 50.4466C147.029 50.4466 146.838 50.2164 146.684 50.2548C146.608 50.2548 146.531 50.37 146.493 50.4466L143.464 61.4116C143.464 61.4116 143.502 61.7182 143.655 61.7565C143.655 61.7565 143.694 61.7565 143.732 61.7565H149.866C149.866 61.7565 150.135 61.6417 150.135 61.4883C150.135 61.4883 150.135 61.4499 150.135 61.4116L147.029 50.4466Z" fill="white"/>
<path d="M224.358 69.387C227.463 69.042 229.419 65.3612 226.582 63.2142C225.431 62.3324 224.089 61.6424 222.556 61.144C219.22 60.0705 215.77 57.2333 216 53.361C216.46 45.6549 225.47 44.8881 231.297 47.1501C231.527 47.2268 231.604 47.3801 231.527 47.6102L230.53 50.8691C230.454 51.0992 230.339 51.1758 230.109 51.0608C226.735 49.4889 223.974 49.4505 221.827 50.984C219.412 52.7093 221.214 55.6615 223.438 56.5433C228.23 58.3835 233.598 60.6073 232.447 66.9333C231.067 74.4477 221.329 74.4094 215.77 71.9557C215.616 71.879 215.54 71.7639 215.578 71.6105L216.498 68.0066C216.498 68.0066 216.613 67.8534 216.69 67.9301C219.105 69.1953 221.636 69.6937 224.319 69.387H224.358Z" fill="white"/>
<path d="M238.122 52.9394L238.045 49.7956C238.045 49.4122 238.237 49.144 238.62 49.029L241.841 48.1087C242.454 47.9553 242.722 48.1856 242.722 48.799L242.569 52.8629C242.569 53.1696 242.799 53.3995 243.067 53.4379H246.671C247.016 53.4379 247.208 53.6296 247.17 53.9747V56.4668C247.131 56.8885 246.901 57.0801 246.48 57.0801H243.106C242.722 57.0035 242.531 57.1952 242.531 57.6169C242.607 60.454 242.607 63.406 242.531 66.5498C242.492 68.9652 244.448 70.4989 246.748 69.3103C246.825 69.3103 246.901 69.3104 246.94 69.3487C246.94 69.3487 246.94 69.3869 246.94 69.4252V72.761C246.94 72.761 246.863 73.0292 246.71 73.1059C242.071 74.4478 237.968 72.8758 238.007 67.5467C238.007 64.0961 238.007 60.7989 238.007 57.6935C238.007 57.2717 237.815 57.0801 237.393 57.0801H236.013C235.553 57.1185 235.323 56.8885 235.323 56.4284V54.0514C235.285 53.668 235.476 53.4762 235.821 53.4762H237.623C237.93 53.4379 238.083 53.2845 238.083 52.9394H238.122Z" fill="white"/>
<path d="M166.275 56.4283C166.965 55.7382 167.578 54.9714 168.498 54.5497C180 49.1056 184.639 65.9364 177.048 71.8023C174.211 73.9877 169.725 74.3325 167.118 71.5721C166.581 70.997 166.313 71.1121 166.313 71.8789L166.428 79.9684C166.428 80.2751 166.275 80.3903 166.006 80.3903H162.096C161.751 80.3903 161.559 80.1985 161.559 79.8535C161.636 73.3742 161.674 66.3964 161.636 58.9586C161.636 56.9266 161.521 55.3163 161.329 54.1278C161.252 53.7061 161.444 53.4761 161.866 53.4761H165.009C165.393 53.4761 165.738 53.7828 165.738 54.2046L165.661 56.1215C165.661 56.6966 165.853 56.7733 166.275 56.3899V56.4283ZM175.783 61.7191C175.821 59.3421 173.943 57.3484 171.565 57.31H170.875C168.498 57.2333 166.505 59.1502 166.466 61.5272L166.39 65.2463C166.351 67.6233 168.23 69.6168 170.607 69.6551H171.297C173.674 69.7318 175.668 67.8149 175.706 65.4379L175.783 61.7191Z" fill="white"/>
<path d="M190.584 71.6488L190.738 79.8918C190.738 80.1602 190.623 80.3135 190.316 80.3135C187.747 80.3902 186.444 80.3903 186.444 80.3903C186.175 80.3903 185.907 80.1602 185.907 79.8918C185.945 71.4189 185.984 63.6744 185.945 56.6967C185.945 55.8532 185.83 55.0096 185.639 54.1662C185.524 53.6678 185.715 53.4378 186.214 53.4761H189.434C189.818 53.5144 190.086 53.8212 190.086 54.2045C190.086 54.2045 190.086 54.2046 190.086 54.2429L189.971 55.3931C189.856 56.6199 190.239 56.7733 191.083 55.9299C193.191 53.8595 195.607 53.131 198.329 53.7061C207.07 55.4697 207.224 70.1535 199.172 73.029C196.105 74.1025 193.422 73.5658 191.121 71.4188C190.699 71.0354 190.508 71.1121 190.508 71.6872L190.584 71.6488ZM195.185 69.9235C197.907 70.0002 200.208 67.2014 200.323 63.6742C200.438 60.147 198.291 57.195 195.569 57.1184C192.846 57.0417 190.546 59.8405 190.431 63.3677C190.316 66.8949 192.463 69.8468 195.185 69.9235Z" fill="white"/>
<path d="M256.911 73.4507C251.582 72.5305 248.055 67.3546 248.975 61.8338C249.895 56.313 254.956 52.5941 260.285 53.5143C265.614 54.4344 269.141 59.6101 268.221 65.1309C267.301 70.6518 262.24 74.3708 256.911 73.4507ZM258.598 70.1152C261.243 70.1152 263.39 67.1629 263.39 63.4824C263.39 59.8401 261.243 56.8498 258.598 56.8498C255.952 56.8498 253.805 59.8018 253.805 63.4824C253.805 67.1629 255.952 70.1152 258.598 70.1152Z" fill="white"/>
<path d="M276.54 57.003C277.843 54.4343 279.837 53.2458 282.521 53.4759C282.713 53.4759 282.828 53.591 282.828 53.821V57.8082C282.828 57.8082 282.713 58.0382 282.598 58.0382C278.84 57.6549 276.923 59.3418 276.847 63.0607C276.77 65.9745 276.808 69.1182 276.923 72.5303C276.923 72.722 276.847 72.7987 276.655 72.7987H272.361C272.093 72.7987 271.978 72.6838 271.978 72.4154C272.208 66.4345 272.169 60.1851 271.978 53.6291C271.978 53.5141 272.016 53.4375 272.131 53.4375H276.08C276.08 53.4375 276.272 53.5525 276.233 53.7059C276.041 54.7411 276.003 55.7762 276.08 56.8497C276.118 57.5015 276.31 57.5397 276.617 56.9646L276.54 57.003Z" fill="white"/>
<path d="M290.916 64.7088C289.536 64.7088 289.191 65.2839 289.958 66.4724C290.149 66.7792 290.341 67.0858 290.533 67.3926C291.376 68.6961 292.718 69.5779 294.252 69.8079C296.36 70.1147 298.546 69.8846 300.769 69.0795C300.961 69.0028 301.076 69.0794 301.114 69.2711L301.651 72.1082C301.651 72.1082 301.651 72.3382 301.498 72.3382C297.626 73.6801 294.137 73.7953 290.993 72.7601C285.089 70.7665 283.977 63.482 286.354 58.5362C287.964 55.2007 290.686 53.5138 294.558 53.4754C300.578 53.3987 303.223 58.6129 302.725 64.0187C302.725 64.4021 302.38 64.7088 301.996 64.7088H290.993H290.916ZM290.188 61.4116L298.047 61.2965C298.047 61.2965 298.316 61.1815 298.316 61.0281V60.8748C298.316 58.5362 296.399 56.696 294.098 56.696H294.022C291.721 56.696 289.919 58.6513 289.919 60.99V61.1432C289.919 61.1432 290.034 61.4116 290.188 61.4116Z" fill="white"/>
</svg>
