<svg width="74" height="74" viewBox="0 0 74 74" fill="none" xmlns="http://www.w3.org/2000/svg">
<path d="M45.748 6.28407V10.5539C45.748 12.262 45.748 13.1161 45.4156 13.7685C45.1232 14.3424 44.6566 14.8089 44.0827 15.1013C43.4303 15.4338 42.5763 15.4338 40.8682 15.4338H32.3284C30.6203 15.4338 29.7663 15.4338 29.1139 15.1013C28.54 14.8089 28.0734 14.3424 27.781 13.7685C27.4486 13.1161 27.4486 12.262 27.4486 10.5539V6.28407M25.0087 67.282H48.1879C51.6041 67.282 53.3122 67.282 54.617 66.6172C55.7648 66.0324 56.6979 65.0992 57.2827 63.9515C57.9476 62.6466 57.9476 60.9385 57.9476 57.5223V16.0437C57.9476 12.6275 57.9476 10.9194 57.2827 9.61462C56.6979 8.46687 55.7648 7.53372 54.617 6.94891C53.3122 6.28407 51.6041 6.28407 48.1879 6.28407H25.0087C21.5925 6.28407 19.8844 6.28407 18.5796 6.94891C17.4318 7.53372 16.4987 8.46687 15.9139 9.61462C15.249 10.9194 15.249 12.6275 15.249 16.0437V57.5223C15.249 60.9385 15.249 62.6466 15.9139 63.9515C16.4987 65.0992 17.4318 66.0324 18.5796 66.6172C19.8844 67.282 21.5925 67.282 25.0087 67.282Z" stroke="black" stroke-width="6.09979" stroke-linecap="round" stroke-linejoin="round"/>
</svg>
