<svg width="74" height="74" viewBox="0 0 74 74" fill="none" xmlns="http://www.w3.org/2000/svg">
<path d="M53.3787 20.3042L19.8299 53.853M25.9297 32.5037V20.3042M19.8299 26.4039H32.0295M41.1791 47.7532H53.3787M23.7948 64.5276H49.4138C54.5381 64.5276 57.1003 64.5276 59.0575 63.5303C60.7791 62.6531 62.1789 61.2534 63.0561 59.5318C64.0533 57.5745 64.0533 55.0124 64.0533 49.8881V24.269C64.0533 19.1447 64.0533 16.5826 63.0561 14.6253C62.1789 12.9037 60.7791 11.504 59.0575 10.6268C57.1003 9.62953 54.5381 9.62953 49.4138 9.62953H23.7948C18.6705 9.62953 16.1083 9.62953 14.1511 10.6268C12.4295 11.504 11.0297 12.9037 10.1525 14.6253C9.15527 16.5826 9.15527 19.1447 9.15527 24.269V49.8881C9.15527 55.0124 9.15527 57.5745 10.1525 59.5318C11.0297 61.2534 12.4295 62.6531 14.1511 63.5303C16.1083 64.5276 18.6705 64.5276 23.7948 64.5276Z" stroke="black" stroke-width="6.09978" stroke-linecap="round" stroke-linejoin="round"/>
</svg>
