<svg width="191" height="53" viewBox="0 0 191 53" fill="none" xmlns="http://www.w3.org/2000/svg">
<path d="M190.224 5.27169V47.627C189.474 49.8573 188.136 51.4185 186.23 52.3106C185.236 52.7769 184.243 53 183.249 53C124.106 53 65.4694 53 7.35999 53C3.28463 53 0 50.6278 0 46.3091C0 33.637 0 20.3362 0 6.44757C0 2.14918 3.99427 0 7.78577 0C65.8546 0.0405509 123.923 0.0405509 181.972 0C183.979 0 185.5 0.243295 186.575 0.750181C188.379 1.60175 189.616 3.10221 190.265 5.27169H190.224ZM188.379 6.8937C188.379 4.19706 186.189 2.00725 183.513 2.00725H6.79228C4.09565 2.00725 1.92618 4.19706 1.92618 6.8937V46.1672C1.92618 48.8638 4.11592 51.0535 6.79228 51.0535H183.513C186.21 51.0535 188.379 48.8638 188.379 46.1672V6.8937Z" fill="black"/>
<path d="M42.8427 14.4769C42.3358 10.2393 45.9448 6.87366 49.7566 6.14374C49.8985 6.12346 50.0405 6.20452 50.0607 6.34644C50.0607 6.34644 50.0607 6.34646 50.0607 6.36674C50.3243 10.5232 47.2222 14.2539 43.2077 14.7405C42.9846 14.7608 42.863 14.6796 42.8427 14.4566V14.4769Z" fill="black"/>
<path d="M131.121 7.96817H131.953C132.074 7.96817 132.176 8.06964 132.176 8.19129V17.6599C132.176 17.7815 132.074 17.8829 131.953 17.8829H131.121C131 17.8829 130.898 17.7815 130.898 17.6599V8.19129C130.898 8.06964 131 7.96817 131.121 7.96817Z" fill="black"/>
<path d="M72.8086 8.75924C72.8086 8.47538 73.0316 8.25235 73.2952 8.25235H75.8499C78.3438 8.25235 80.3713 10.1785 80.3713 12.571V13.4429C80.3713 15.8354 78.3641 17.8021 75.8702 17.8021H73.3155C73.0519 17.8021 72.8289 17.5791 72.8289 17.3155V8.73894L72.8086 8.75924ZM74.0454 9.55001V16.5045C74.0454 16.7478 74.2279 16.9303 74.4712 16.9303H75.6472C77.6341 16.9303 79.2562 15.3285 79.2562 13.3415V12.713C79.2562 10.726 77.6544 9.12418 75.6674 9.12418H74.4915C74.2482 9.12418 74.0657 9.3067 74.0657 9.55001H74.0454Z" fill="black"/>
<path d="M82.6635 9.75263C83.0666 9.75263 83.3934 9.42587 83.3934 9.02275C83.3934 8.61963 83.0666 8.29286 82.6635 8.29286C82.2604 8.29286 81.9336 8.61963 81.9336 9.02275C81.9336 9.42587 82.2604 9.75263 82.6635 9.75263Z" fill="black"/>
<path d="M115.348 8.27258H116.26C116.26 8.27258 116.422 8.33344 116.422 8.43482C116.422 8.47537 116.422 8.5159 116.382 8.53617L114.881 10.1988C114.881 10.1988 114.8 10.2595 114.76 10.2595H114.232C114.232 10.2595 114.07 10.1988 114.07 10.0974C114.07 10.0569 114.07 10.0365 114.091 10.0162L115.206 8.35364C115.206 8.35364 115.287 8.29288 115.327 8.29288L115.348 8.27258Z" fill="black"/>
<path d="M92.1909 17.2342L92.2517 20.3364C92.2517 20.3364 92.1909 20.4783 92.1098 20.4783H91.1771C91.1771 20.4783 91.0352 20.4377 91.0352 20.3364V11.2124C91.0352 11.0502 91.096 10.9691 91.2582 10.9488L91.7448 10.8879C91.9475 10.8677 92.0489 10.9488 92.0489 11.1515V11.8814C92.0084 12.1247 92.0895 12.1654 92.2517 11.9829C93.8332 10.2392 96.3879 10.7258 97.0569 12.9764C97.9693 15.9974 95.5769 19.3631 92.4139 17.1125C92.272 17.0111 92.2111 17.0517 92.2111 17.2139L92.1909 17.2342ZM94.0156 17.0112C95.1105 17.0314 96.0229 15.896 96.0635 14.4564C96.104 13.0169 95.2524 11.8206 94.1576 11.8004C93.0627 11.7801 92.1503 12.9155 92.1098 14.3551C92.0692 15.7946 92.9208 16.9706 94.0156 17.0112Z" fill="black"/>
<path d="M107.805 11.9017C109.529 10.0972 111.982 11.0096 112.063 13.4427C112.104 14.7606 112.124 16.1596 112.104 17.6397C112.104 17.8019 112.023 17.883 111.861 17.883H111.131C110.948 17.883 110.867 17.7816 110.867 17.5991V13.6252C110.887 12.7939 110.502 12.2262 109.711 11.9423C109.448 11.8409 109.184 11.8613 108.941 12.0032C108.13 12.4695 107.745 13.1588 107.745 14.0915V17.6397C107.745 17.7816 107.684 17.8627 107.542 17.8627H106.832C106.609 17.8627 106.508 17.7614 106.508 17.5383V11.1718C106.508 11.0502 106.569 10.9691 106.69 10.9488L107.319 10.8676C107.461 10.8676 107.542 10.9083 107.542 11.0705V11.7801C107.542 12.0436 107.623 12.0842 107.805 11.8814V11.9017Z" fill="black"/>
<path d="M83.1295 10.969H82.2374C82.1478 10.969 82.0752 11.0415 82.0752 11.1311V17.6802C82.0752 17.7698 82.1478 17.8423 82.2374 17.8423H83.1295C83.2191 17.8423 83.2917 17.7698 83.2917 17.6802V11.1311C83.2917 11.0415 83.2191 10.969 83.1295 10.969Z" fill="black"/>
<path d="M86.5343 12.0842C86.1693 12.2667 86.0274 12.733 86.2302 13.098C86.3113 13.2399 86.4126 13.3615 86.5546 13.4224C87.5075 13.8887 89.3526 14.4159 89.3323 15.7744C89.312 17.9033 86.7979 18.1871 85.2367 17.5991C85.0136 17.518 84.892 17.2748 84.9325 17.0517L84.9731 16.8286C85.0542 16.5245 85.2164 16.4434 85.5003 16.5853C86.4735 17.1328 87.2845 17.1125 87.9536 16.5246C88.278 16.2407 88.3185 15.7338 88.0144 15.4094C87.9536 15.3486 87.8927 15.308 87.8319 15.2675C87.3656 14.9836 86.8993 14.7605 86.3924 14.5781C85.1758 14.1523 84.4662 12.733 85.48 11.699C86.2707 10.9083 87.3453 10.7258 88.7038 11.1718C89.0079 11.2732 89.1093 11.4759 88.9674 11.7801L88.8862 11.9626C88.8254 12.1045 88.6632 12.1654 88.501 12.1045C87.7711 11.7801 87.102 11.7801 86.4937 12.1045L86.5343 12.0842Z" fill="black"/>
<path d="M101.215 17.8828C99.4106 17.6801 98.113 15.9769 98.3158 14.0507C98.5185 12.1246 100.141 10.7256 101.945 10.9284C103.75 11.1311 105.047 12.8343 104.844 14.7604C104.642 16.6866 103.02 18.0856 101.215 17.8828ZM101.56 16.9704C102.695 16.9704 103.648 15.835 103.669 14.4157C103.669 12.9964 102.776 11.8205 101.641 11.8002C100.506 11.8002 99.5526 12.9356 99.5323 14.3549C99.5323 15.7742 100.424 16.9501 101.56 16.9704Z" fill="black"/>
<path d="M115.165 10.969H114.233C114.154 10.969 114.091 11.0326 114.091 11.111V17.7206C114.091 17.799 114.154 17.8626 114.233 17.8626H115.165C115.244 17.8626 115.307 17.799 115.307 17.7206V11.111C115.307 11.0326 115.244 10.969 115.165 10.969Z" fill="black"/>
<path d="M119.667 16.2407C119.768 16.5854 119.89 16.5854 119.991 16.2407L121.654 11.0705C121.654 11.0705 121.755 10.9286 121.856 10.9286L122.87 10.9895C122.87 10.9895 122.951 11.0097 122.931 11.0705L120.437 17.5991C120.376 17.7411 120.275 17.8222 120.133 17.8627C119.91 17.9033 119.687 17.9033 119.464 17.8627C119.281 17.8425 119.16 17.7412 119.099 17.5587L116.747 11.1516C116.747 11.1516 116.747 10.9691 116.848 10.9286C116.848 10.9286 116.889 10.9286 116.909 10.9286H117.659C117.862 10.9286 117.984 11.0097 118.045 11.1922L119.667 16.2204V16.2407Z" fill="black"/>
<path d="M125.261 14.8211C124.592 14.8211 124.43 15.1049 124.775 15.6929L124.937 15.9565C125.342 16.6256 125.93 16.95 126.701 16.9703C127.37 16.9703 127.998 16.8892 128.607 16.7067C128.749 16.6661 128.87 16.7067 128.931 16.8486L128.992 16.9906C129.113 17.2744 129.032 17.457 128.749 17.5583C122.118 19.7886 122.078 10.4619 127.066 10.9282C127.998 11.0093 128.647 11.4959 128.972 12.388C129.154 12.8543 129.296 13.2396 129.418 13.5437C129.742 14.3953 129.458 14.8008 128.566 14.8008H125.302L125.261 14.8211ZM124.856 13.8885H128.181C128.181 13.8885 128.302 13.8073 128.302 13.7262V13.6452C128.302 12.6314 127.491 11.8406 126.518 11.8406H126.457C125.484 11.8406 124.693 12.6719 124.714 13.6654V13.7465C124.714 13.8276 124.775 13.8682 124.835 13.8682L124.856 13.8885Z" fill="black"/>
<path d="M138.888 11.8207C140.53 10.1986 142.882 10.8676 143.064 13.2804C143.166 14.5983 143.166 16.0379 143.105 17.6397C143.105 17.8019 143.024 17.8627 142.862 17.8627H142.051C141.949 17.8221 141.889 17.7614 141.889 17.66V13.6049C141.889 12.7331 141.483 12.145 140.652 11.8814C140.489 11.8206 140.327 11.8409 140.165 11.8814C139.212 12.2666 138.746 12.9764 138.746 14.0104L138.786 17.5586C138.786 17.7208 138.705 17.8019 138.543 17.8019H137.773C137.61 17.8019 137.529 17.7411 137.529 17.5789V11.1312C137.529 10.969 137.61 10.8879 137.773 10.8879H138.279C138.482 10.8677 138.563 10.9488 138.563 11.1515V11.6381C138.563 11.9423 138.665 11.9828 138.888 11.7801V11.8207Z" fill="black"/>
<path d="M148.335 17.1328C146.084 19.282 142.962 16.2408 145.354 14.3957C146.186 13.7672 147.179 13.4833 148.355 13.5846C148.497 13.5846 148.639 13.4833 148.659 13.3413C148.659 13.3008 148.659 13.2805 148.659 13.24C148.274 11.8004 147.24 11.4354 145.537 12.1856C145.375 12.2667 145.253 12.2059 145.192 12.0234L145.152 11.8815C145.071 11.6381 145.192 11.3746 145.436 11.2732C147.423 10.523 149.653 10.8069 149.714 13.4833C149.754 14.7606 149.775 16.1393 149.795 17.6194C149.795 17.7816 149.714 17.8627 149.552 17.8627H149.105C148.923 17.8627 148.761 17.7209 148.761 17.5384V17.2545C148.7 16.9504 148.578 16.9098 148.355 17.1125L148.335 17.1328ZM145.74 15.6731C145.618 16.2205 145.963 16.7882 146.51 16.9098C146.51 16.9098 146.51 16.9098 146.53 16.9098C148.011 17.2342 148.923 15.9367 148.599 14.5377C148.578 14.416 148.497 14.3754 148.376 14.3551C147.463 14.3348 145.983 14.5782 145.74 15.6528V15.6731Z" fill="black"/>
<path d="M58.069 32.603C58.1906 32.6638 58.3325 32.7247 58.4745 32.745C58.6772 32.8058 58.738 32.9071 58.6569 33.1099C57.0957 36.6581 55.2507 39.3548 53.142 41.2404C51.5605 42.6394 49.6547 43.0245 47.769 42.0513C45.2752 40.7537 42.5988 40.774 39.6994 42.1122C38.0368 42.8827 36.4756 42.7205 35.0158 41.6053C31.9137 39.2736 29.8861 35.3807 28.6696 31.65C26.9056 26.1959 27.0475 19.7889 31.792 16.0988C34.0426 14.3551 37.0028 13.7063 39.7197 14.8214C41.8486 15.7135 43.572 16.6057 45.9037 15.5716C46.6336 15.2472 47.3433 14.9634 48.0326 14.7201C51.885 13.3819 55.0276 15.0445 57.5012 18.025C57.6432 18.1872 57.6229 18.3494 57.4404 18.4508C51.9863 21.9382 52.2905 29.6225 58.0487 32.5624L58.069 32.603Z" fill="black"/>
<path d="M75.2616 34.5693L74.2276 38.1784C74.2276 38.1784 74.1465 38.3001 74.0654 38.3001L71.7743 38.361C71.7743 38.361 71.6121 38.3001 71.5918 38.1987C71.5918 38.1785 71.5918 38.1581 71.5918 38.1378L75.9307 24.2695C75.9307 24.2695 76.0118 24.1479 76.0929 24.1479H79.0532C79.0532 24.1479 79.1951 24.1884 79.2153 24.2695L83.6151 38.1378C83.6151 38.1378 83.5948 38.3204 83.5137 38.3407H83.4732H81.1212C81.1212 38.3407 80.9793 38.3406 80.959 38.2595L79.7831 34.5289C79.7831 34.5289 79.702 34.4072 79.6209 34.4072H75.4036C75.4036 34.4072 75.2616 34.4681 75.2414 34.5289L75.2616 34.5693ZM77.6947 26.5607C77.6947 26.5607 77.5933 26.4389 77.5122 26.4592C77.4717 26.4592 77.4311 26.5201 77.4108 26.5607L75.8091 32.3594C75.8091 32.3594 75.8294 32.5215 75.9105 32.5418C75.9105 32.5418 75.9307 32.5418 75.951 32.5418H79.1951C79.1951 32.5418 79.337 32.4811 79.337 32.4C79.337 32.4 79.337 32.3797 79.337 32.3594L77.6947 26.5607Z" fill="black"/>
<path d="M118.59 36.577C120.232 36.3945 121.266 34.448 119.766 33.3126C119.157 32.8462 118.448 32.4813 117.637 32.2177C115.873 31.65 114.048 30.1496 114.17 28.1018C114.413 24.0264 119.178 23.6209 122.26 24.8172C122.381 24.8577 122.422 24.9388 122.381 25.0605L121.854 26.7839C121.813 26.9056 121.753 26.9461 121.631 26.8853C119.847 26.054 118.387 26.0337 117.251 26.8447C115.974 27.7571 116.927 29.3183 118.103 29.7847C120.637 30.7579 123.476 31.9339 122.868 35.2794C122.138 39.2533 116.988 39.2331 114.048 37.9354C113.967 37.8949 113.926 37.834 113.947 37.7529L114.433 35.847C114.433 35.847 114.494 35.766 114.535 35.8065C115.812 36.4756 117.15 36.7392 118.569 36.577H118.59Z" fill="black"/>
<path d="M125.869 27.879L125.829 26.2164C125.829 26.0136 125.93 25.8718 126.133 25.8109L127.836 25.3242C128.161 25.2431 128.302 25.3649 128.302 25.6893L128.221 27.8385C128.221 28.0007 128.343 28.1223 128.485 28.1425H130.391C130.573 28.1425 130.675 28.244 130.654 28.4264V29.7444C130.634 29.9674 130.512 30.0687 130.289 30.0687H128.505C128.302 30.0282 128.201 30.1296 128.201 30.3526C128.242 31.853 128.242 33.4141 128.201 35.0767C128.181 36.3541 129.215 37.1651 130.431 36.5366C130.472 36.5366 130.512 36.5366 130.533 36.5569C130.533 36.5569 130.533 36.5771 130.533 36.5974V38.3614C130.533 38.3614 130.492 38.5033 130.411 38.5439C127.958 39.2535 125.788 38.4222 125.809 35.6039C125.809 33.7791 125.809 32.0354 125.809 30.3931C125.809 30.1701 125.707 30.0687 125.484 30.0687H124.754C124.511 30.089 124.389 29.9674 124.389 29.7241V28.467C124.369 28.2643 124.47 28.1628 124.653 28.1628H125.606C125.768 28.1426 125.849 28.0614 125.849 27.879H125.869Z" fill="black"/>
<path d="M87.8733 29.724C88.2383 29.359 88.5627 28.9536 89.0493 28.7305C95.1319 25.8514 97.5852 34.7523 93.5707 37.8545C92.0703 39.0102 89.6981 39.1925 88.3194 37.7327C88.0355 37.4286 87.8936 37.4894 87.8936 37.8949L87.9544 42.173C87.9544 42.3352 87.8733 42.3961 87.7314 42.3961H85.6633C85.4808 42.3961 85.3794 42.2947 85.3794 42.1123C85.42 38.6857 85.4403 34.9956 85.42 31.0621C85.42 29.9875 85.3592 29.1359 85.2578 28.5074C85.2172 28.2844 85.3186 28.1628 85.5416 28.1628H87.2042C87.407 28.1628 87.5895 28.325 87.5895 28.548L87.5489 29.5618C87.5489 29.8659 87.6503 29.9065 87.8733 29.7037V29.724ZM92.9016 32.522C92.9219 31.2649 91.9284 30.2106 90.6713 30.1903H90.3063C89.0493 30.1497 87.9949 31.1635 87.9747 32.4205L87.9341 34.3873C87.9139 35.6444 88.9073 36.6986 90.1644 36.7189H90.5294C91.7865 36.7595 92.8408 35.7457 92.8611 34.4887L92.9016 32.522Z" fill="black"/>
<path d="M100.73 37.7733L100.811 42.1325C100.811 42.2745 100.751 42.3555 100.588 42.3555C99.2299 42.3961 98.5406 42.3961 98.5406 42.3961C98.3986 42.3961 98.2567 42.2745 98.2567 42.1325C98.277 37.6517 98.2972 33.5561 98.277 29.8659C98.277 29.4199 98.2161 28.9737 98.1148 28.5277C98.0539 28.2641 98.1553 28.1425 98.4189 28.1627H100.122C100.325 28.183 100.467 28.3452 100.467 28.548C100.467 28.548 100.467 28.548 100.467 28.5683L100.406 29.1765C100.345 29.8253 100.548 29.9065 100.994 29.4604C102.109 28.3655 103.386 27.9803 104.826 28.2844C109.449 29.2171 109.53 36.9825 105.272 38.5032C103.65 39.0709 102.231 38.7871 101.014 37.6516C100.791 37.4489 100.69 37.4894 100.69 37.7936L100.73 37.7733ZM103.163 36.8609C104.603 36.9014 105.819 35.4213 105.88 33.556C105.941 31.6906 104.806 30.1295 103.366 30.0889C101.927 30.0484 100.71 31.5285 100.649 33.3938C100.588 35.2592 101.724 36.8203 103.163 36.8609Z" fill="black"/>
<path d="M135.806 38.7262C132.988 38.2396 131.123 35.5023 131.609 32.5827C132.096 29.663 134.772 27.6963 137.591 28.1829C140.409 28.6695 142.274 31.4067 141.788 34.3263C141.301 37.246 138.625 39.2128 135.806 38.7262ZM136.698 36.9622C138.097 36.9622 139.233 35.4009 139.233 33.4545C139.233 31.5283 138.097 29.9469 136.698 29.9469C135.299 29.9469 134.164 31.5081 134.164 33.4545C134.164 35.4009 135.299 36.9622 136.698 36.9622Z" fill="black"/>
<path d="M146.186 30.0278C146.876 28.6694 147.93 28.0409 149.349 28.1625C149.451 28.1625 149.511 28.2234 149.511 28.3451V30.4537C149.511 30.4537 149.451 30.5753 149.39 30.5753C147.403 30.3725 146.389 31.2647 146.348 33.2314C146.308 34.7723 146.328 36.4348 146.389 38.2394C146.389 38.3407 146.348 38.3813 146.247 38.3813H143.976C143.834 38.3813 143.773 38.3205 143.773 38.1786C143.895 35.0156 143.875 31.7107 143.773 28.2436C143.773 28.1828 143.794 28.1422 143.855 28.1422H145.943C145.943 28.1422 146.044 28.2031 146.024 28.2842C145.923 28.8316 145.902 29.3791 145.943 29.9468C145.963 30.2915 146.065 30.3117 146.227 30.0075L146.186 30.0278Z" fill="black"/>
<path d="M153.789 34.1031C153.059 34.1031 152.877 34.4073 153.282 35.0358C153.383 35.198 153.485 35.3602 153.586 35.5224C154.032 36.2118 154.742 36.6781 155.553 36.7997C156.668 36.962 157.824 36.8403 159 36.4145C159.101 36.374 159.162 36.4145 159.182 36.5159L159.466 38.0162C159.466 38.0162 159.466 38.1379 159.385 38.1379C157.337 38.8475 155.492 38.9084 153.83 38.361C150.707 37.3067 150.119 33.4543 151.376 30.8388C152.228 29.0748 153.667 28.1827 155.715 28.1624C158.898 28.1218 160.297 30.8793 160.034 33.7381C160.034 33.9409 159.851 34.1031 159.649 34.1031H153.83H153.789ZM153.404 32.3594L157.56 32.2985C157.56 32.2985 157.702 32.2377 157.702 32.1566V32.0755C157.702 30.8387 156.688 29.8656 155.472 29.8656H155.431C154.215 29.8656 153.262 30.8996 153.262 32.1364V32.2175C153.262 32.2175 153.323 32.3594 153.404 32.3594Z" fill="black"/>
</svg>
