<svg width="188" height="53" viewBox="0 0 188 53" fill="none" xmlns="http://www.w3.org/2000/svg">
<path d="M5.47768 0H181.66C184.508 0.398377 186.301 2.01179 187.038 4.84026V48.1837C186.161 51.3109 184.09 52.8845 180.823 52.8845C122.76 52.8845 64.6765 52.8845 6.61304 52.8845C5.05937 52.8845 3.92399 52.6853 3.187 52.3069C1.17519 51.2313 0 49.2195 0 46.9487C0.0199188 33.4437 0.0199188 19.879 0 6.25454C0 2.86834 1.99186 0.51789 5.45774 0H5.47768ZM185.405 5.97565C185.405 3.64515 183.512 1.75287 181.182 1.75287H5.9159C3.58539 1.75287 1.69308 3.64515 1.69308 5.97565V46.9885C1.69308 49.319 3.58539 51.2112 5.9159 51.2112H181.182C183.512 51.2112 185.405 49.319 185.405 46.9885V5.97565Z" fill="black"/>
<path d="M111.684 6.57268H110.708C110.642 6.57268 110.589 6.62618 110.589 6.69219V16.1536C110.589 16.2196 110.642 16.2731 110.708 16.2731H111.684C111.75 16.2731 111.804 16.2196 111.804 16.1536V6.69219C111.804 6.62618 111.75 6.57268 111.684 6.57268Z" fill="black"/>
<path d="M53.5209 7.30976C53.5209 7.05081 53.74 6.83173 53.9989 6.83173H56.5087C58.9786 6.83173 60.9705 8.76382 60.9705 11.1541V11.911C60.9705 14.3013 58.9587 16.2135 56.4888 16.2135H53.979C53.7201 16.2135 53.501 15.9943 53.501 15.7354V7.30976H53.5209ZM54.716 8.08662V14.9984C54.6961 15.1976 54.8555 15.3569 55.0546 15.3569H56.2896C58.2018 15.3569 59.7754 13.8232 59.7754 11.911V11.194C59.7754 9.28175 58.2417 7.7281 56.3294 7.7281H55.0945C54.8953 7.7281 54.7359 7.88743 54.7359 8.08662H54.716Z" fill="black"/>
<path d="M63.1618 8.32548C63.5688 8.32548 63.8988 7.99552 63.8988 7.58849C63.8988 7.18146 63.5688 6.8515 63.1618 6.8515C62.7548 6.8515 62.4248 7.18146 62.4248 7.58849C62.4248 7.99552 62.7548 8.32548 63.1618 8.32548Z" fill="black"/>
<path d="M94.1574 8.38535C94.7749 7.70811 95.0139 6.41343 96.2489 6.93132C96.3883 6.99107 96.3883 7.07074 96.2887 7.17033L94.9143 8.62449C94.7948 8.744 94.6355 8.80367 94.4562 8.78375H94.2769C94.1574 8.74392 94.0578 8.62437 94.0777 8.50486C94.0777 8.46502 94.0977 8.42519 94.1375 8.38535H94.1574Z" fill="black"/>
<path d="M63.5998 9.44107H62.7632C62.6642 9.44107 62.584 9.52139 62.584 9.62039V16.094C62.584 16.193 62.6642 16.2732 62.7632 16.2732H63.5998C63.6988 16.2732 63.7791 16.193 63.7791 16.094V9.62039C63.7791 9.52139 63.6988 9.44107 63.5998 9.44107Z" fill="black"/>
<path d="M68.5608 14.0225C68.1624 13.5843 67.6445 13.2457 66.9872 13.0465C63.7802 12.0506 66.1904 8.48513 69.1384 9.70018C69.3376 9.77985 69.4571 9.99898 69.4173 10.2181L69.3575 10.4372C69.2978 10.6961 69.1583 10.7559 68.9193 10.6165C68.1823 10.1584 67.4852 10.1782 66.8478 10.6961C66.549 10.9351 66.5091 11.3733 66.7482 11.6721C66.8079 11.7319 66.8677 11.7917 66.9474 11.8315C67.4254 12.0905 67.9035 12.3095 68.4014 12.5087C70.0746 13.1461 70.234 15.2576 68.5409 15.9547C67.5051 16.373 66.4693 16.3332 65.4335 15.8153C65.2941 15.7555 65.2542 15.6359 65.314 15.4965L65.5132 15.0982C65.573 14.9588 65.7522 14.8989 65.8917 14.9786C66.8079 15.4766 68.0031 15.636 68.6205 14.5803C68.74 14.3811 68.7201 14.1819 68.5608 14.0026V14.0225Z" fill="black"/>
<path d="M72.5039 15.636L72.6035 18.6238C72.6035 18.7831 72.5239 18.8628 72.3645 18.8628H71.5478C71.4283 18.8628 71.3486 18.7632 71.3486 18.6437V9.54079C71.3486 9.54079 71.3686 9.46116 71.4283 9.46116H72.1454C72.3247 9.42132 72.4043 9.52091 72.3844 9.70017L72.3048 10.3773C72.2649 10.6761 72.3446 10.696 72.5438 10.4969C74.0775 8.78384 76.5076 9.26195 77.2247 11.4331C78.2007 14.3811 75.7905 17.8071 72.6832 15.5364C72.5438 15.4368 72.484 15.4766 72.484 15.636H72.5039ZM76.2487 12.1104C76.2487 11.1742 75.5316 10.3973 74.5954 10.3773H74.3365C73.4003 10.3574 72.6234 11.0945 72.6035 12.0306L72.5637 13.6043C72.5637 14.5405 73.2808 15.3173 74.217 15.3372H74.4759C75.4121 15.3572 76.1889 14.6201 76.2088 13.6839L76.2487 12.1104Z" fill="black"/>
<path d="M81.3675 16.2534C79.5948 16.0543 78.3399 14.3611 78.559 12.4888C78.7781 10.6164 80.3915 9.26199 82.1444 9.46118C83.9172 9.66037 85.1721 11.3535 84.9529 13.2259C84.7338 15.0982 83.1204 16.4526 81.3675 16.2534ZM81.746 15.397C82.8615 15.397 83.7777 14.2815 83.7976 12.8672C83.7976 11.4729 82.9212 10.3177 81.8058 10.3177C80.6903 10.3177 79.774 11.4332 79.7541 12.8474C79.7541 14.2417 80.6306 15.397 81.746 15.397Z" fill="black"/>
<path d="M87.8228 10.4771C89.5558 8.60474 91.9461 9.50103 92.0656 11.9112C92.1253 13.2657 92.1452 14.6601 92.1054 16.0743C92.1054 16.1739 92.0457 16.2336 91.9461 16.2336L91.0497 16.2734C90.9302 16.2734 90.8903 16.2137 90.8903 16.1141V12.3495C90.8903 11.5328 90.5517 10.9152 89.8346 10.4969C89.6355 10.3774 89.4562 10.3575 89.257 10.4173C88.3009 10.6962 87.8228 11.2938 87.8228 12.21C87.8228 13.445 87.8228 14.7397 87.8228 16.0743C87.8228 16.1739 87.7631 16.2336 87.6635 16.2535L86.7472 16.2934C86.7472 16.2934 86.5879 16.2336 86.5879 16.1539V9.70025C86.5879 9.58074 86.6676 9.48117 86.807 9.48117H87.4245C87.5838 9.48117 87.6635 9.56084 87.6635 9.72019L87.6037 10.3974C87.5838 10.6762 87.6635 10.7161 87.8428 10.5169L87.8228 10.4771Z" fill="black"/>
<path d="M95.1172 9.51221L94.181 9.51384C94.115 9.51396 94.0616 9.56756 94.0617 9.63356L94.0731 16.1471C94.0732 16.2131 94.1268 16.2665 94.1928 16.2663L95.129 16.2647C95.195 16.2646 95.2484 16.211 95.2483 16.145L95.2369 9.63151C95.2368 9.56551 95.1832 9.5121 95.1172 9.51221Z" fill="black"/>
<path d="M99.5347 14.6598C99.6343 14.9984 99.7538 14.9984 99.8734 14.6598L101.527 9.60046C101.527 9.60046 101.566 9.52071 101.606 9.52071C101.925 9.44104 102.303 9.4212 102.742 9.48096C102.801 9.48096 102.821 9.52075 102.801 9.56059L100.351 15.9546C100.292 16.094 100.192 16.1935 100.053 16.2533C99.8335 16.333 99.5945 16.3529 99.3554 16.2932C99.1762 16.2533 99.0567 16.1338 98.9969 15.9546L96.6465 9.58053C96.6465 9.58053 96.6465 9.48094 96.7063 9.46102C96.7063 9.46102 96.7063 9.46102 96.7262 9.46102H97.7221C97.7221 9.46102 97.8815 9.50085 97.9213 9.58053L99.5546 14.6598H99.5347Z" fill="black"/>
<path d="M105.031 13.2458C104.334 13.2458 104.195 13.5248 104.573 14.1024C104.673 14.2618 104.792 14.4012 104.872 14.5406C105.251 15.0784 105.868 15.3971 106.525 15.3771C107.362 15.3572 107.94 15.2576 108.258 15.1182C108.398 15.0584 108.557 15.1182 108.637 15.2377C108.637 15.2377 108.637 15.2377 108.637 15.2576L108.716 15.4967C108.776 15.656 108.696 15.8353 108.537 15.8751C107.481 16.2934 106.426 16.3532 105.41 16.0544C101.605 14.9589 103.259 8.44541 107.183 9.54094C108.637 9.93932 109.115 11.4731 109.115 12.8475C109.115 13.1065 108.995 13.226 108.736 13.226H105.012L105.031 13.2458ZM104.673 12.3694H107.88C107.88 12.3694 108.019 12.2898 108.019 12.2101V12.0109C108.019 11.0747 107.242 10.3178 106.286 10.3178H106.266C105.31 10.3178 104.553 11.0946 104.553 12.0308V12.2301C104.553 12.2301 104.613 12.3694 104.693 12.3694H104.673Z" fill="black"/>
<path d="M118.379 10.4371C119.514 9.20214 120.67 9.08268 121.825 10.1185C122.96 11.1144 122.622 14.64 122.602 16.0343C122.602 16.1737 122.522 16.2335 122.383 16.2534H121.546C121.546 16.2534 121.407 16.2335 121.407 16.1339V12.2497C121.407 11.3533 120.988 10.7558 120.152 10.4371C119.992 10.3774 119.853 10.3774 119.694 10.4371C118.718 10.7757 118.239 11.433 118.279 12.4091C118.299 13.6241 118.319 14.8192 118.319 16.0144C118.319 16.1737 118.239 16.2534 118.08 16.2733H117.383C117.204 16.2932 117.124 16.2136 117.124 16.0343V9.75982C117.124 9.54071 117.224 9.46112 117.423 9.48104C117.483 9.48104 117.542 9.48104 117.582 9.48104C118.02 9.38145 118.2 9.5408 118.1 9.97901C118.08 10.1184 118.06 10.2379 118.08 10.3773C118.1 10.6362 118.2 10.6563 118.379 10.477V10.4371Z" fill="black"/>
<path d="M127.999 11.8115C127.78 10.7358 127.163 10.2379 126.167 10.3375C125.649 10.3972 125.27 10.6761 124.772 10.7159C124.613 10.7159 124.514 10.6562 124.514 10.4769V10.2379C124.514 10.0786 124.573 9.95894 124.733 9.87926C126.725 8.90324 129.135 9.46102 129.075 12.0505C129.035 13.385 129.075 14.7395 129.115 16.1338C129.115 16.2334 129.075 16.2732 128.995 16.2533L128.238 16.1936C128.238 16.1936 128.139 16.1538 128.159 16.0741C128.179 15.9148 128.159 15.7355 128.099 15.5761C127.999 15.3371 127.86 15.2972 127.681 15.4964C125.231 18.1058 121.824 13.5245 125.788 12.2895C126.466 12.0903 127.123 11.9907 127.8 12.0106C127.979 12.0106 128.059 11.9309 128.019 11.7716L127.999 11.8115ZM127.601 12.8671C126.525 12.8273 125.768 13.1062 125.31 13.6838C125.031 14.0224 125.031 14.5204 125.31 14.859C125.689 15.3171 126.127 15.4766 126.645 15.3371C127.681 15.0383 128.119 14.3412 127.979 13.2257C127.959 13.0066 127.82 12.887 127.601 12.8671Z" fill="black"/>
<path d="M18.8232 16.592C24.2411 19.5798 29.7188 22.5875 35.2562 25.5952C35.3359 25.6351 35.3558 25.7148 35.316 25.7945C35.316 25.7945 35.316 25.8143 35.2961 25.8343L31.7107 29.3998C31.5712 29.5392 31.4517 29.5392 31.3123 29.3998L18.6837 16.8111C18.6837 16.8111 18.6439 16.7115 18.6837 16.6716C18.7435 16.592 18.7833 16.5721 18.8232 16.592Z" fill="black"/>
<path d="M30.8143 30.2961L17.867 43.4426C17.6678 43.6418 17.3691 43.6418 17.1699 43.4426C17.0703 43.343 17.0105 43.2235 17.0105 43.0841L16.8711 18.0262C16.8711 16.6916 17.3292 16.4925 18.2853 17.4286L30.8342 29.9775C30.9338 30.0771 30.9338 30.1767 30.8342 30.2763L30.8143 30.2961Z" fill="black"/>
<path d="M66.6282 31.6109H61.031C61.031 31.6109 60.9115 31.591 60.9115 31.5113V29.2206C60.9115 29.121 60.9513 29.0612 61.0509 29.0612H69.0184C69.2774 29.0612 69.4367 29.1808 69.4566 29.4397C69.9148 34.0808 67.644 37.9451 63.1025 38.9012C56.1907 40.3552 49.9959 34.3597 51.9081 27.4081C52.6451 24.719 54.876 22.2491 57.5053 21.3129C61.031 20.058 64.2578 20.6356 67.1859 23.0856C67.2257 23.1254 67.2257 23.1852 67.1859 23.225L65.5326 24.9182C65.5326 24.9182 65.4131 24.978 65.3733 24.9182C62.9232 22.9064 60.3936 22.6076 57.7244 24.0218C53.7606 26.1332 53.183 31.4715 56.2106 34.6187C59.3777 37.9252 66.2696 37.0488 66.8871 31.8898C66.907 31.6906 66.8273 31.591 66.6282 31.591V31.6109Z" fill="black"/>
<path d="M133.995 32.7861L134.055 38.6621C134.055 38.6621 134.015 38.7816 133.935 38.7816H131.545C131.545 38.7816 131.425 38.7418 131.425 38.6621L131.346 21.3925C131.346 21.273 131.445 21.1535 131.565 21.1535C133.278 21.2531 135.011 21.2929 136.764 21.2332C138.138 21.1933 139.234 21.3726 140.07 21.7909C142.938 23.1853 144.154 26.5715 142.64 29.3999C140.827 32.8061 137.7 32.4873 134.334 32.4275C134.075 32.4275 133.955 32.547 133.955 32.806L133.995 32.7861ZM134.094 24.1413V29.619C134.094 29.7385 134.214 29.858 134.353 29.858H137.6C139.333 29.858 140.727 28.5433 140.708 26.9299V26.8104C140.708 25.197 139.293 23.9023 137.58 23.9223H134.334C134.214 23.9223 134.094 24.0418 134.094 24.1613V24.1413Z" fill="black"/>
<path d="M112.701 21.2727H110.39C110.313 21.2727 110.251 21.3351 110.251 21.4121V38.6618C110.251 38.7388 110.313 38.8012 110.39 38.8012H112.701C112.778 38.8012 112.84 38.7388 112.84 38.6618V21.4121C112.84 21.3351 112.778 21.2727 112.701 21.2727Z" fill="black"/>
<path d="M147.737 21.253H145.466C145.367 21.253 145.287 21.3333 145.287 21.4323V38.6024C145.287 38.7014 145.367 38.7816 145.466 38.7816H147.737C147.836 38.7816 147.916 38.7014 147.916 38.6024V21.4323C147.916 21.3333 147.836 21.253 147.737 21.253Z" fill="black"/>
<path d="M40.4748 28.4239C41.0923 28.7426 41.6301 29.0813 42.0882 29.4597C42.7456 30.0174 42.6659 30.5155 41.8691 30.9935C40.0764 32.0492 38.2439 33.085 36.3317 34.1008C36.1923 34.1805 36.0728 34.1605 35.9533 34.041L32.2882 30.376C32.1487 30.2167 32.1487 30.0772 32.2882 29.9378L35.9732 26.2329C36.0927 26.0934 36.2321 26.0935 36.3914 26.1732C37.6862 26.9699 39.0606 27.7068 40.4748 28.4239Z" fill="black"/>
<path d="M157.917 31.2324C158.614 31.3718 158.774 31.1527 158.375 30.5551C157.18 28.8023 155.607 28.4039 153.635 29.3401C153.236 29.5194 152.918 29.8181 152.639 30.2165C152.479 30.4556 152.26 30.4954 152.021 30.336L150.567 29.38C150.328 29.2206 150.308 29.0214 150.487 28.8022C152.539 26.5315 154.969 25.8942 157.798 26.8702C159.75 27.5474 161.184 29.5194 161.184 31.571C161.184 33.9214 161.184 36.252 161.224 38.6024C161.224 38.7219 161.164 38.8015 161.024 38.8015H158.814C158.714 38.8015 158.614 38.7219 158.614 38.6223L158.654 37.8852C158.654 37.4271 158.535 37.3674 158.236 37.726C157.439 38.6422 156.324 39.1203 154.89 39.1203C152.2 39.1203 150.726 37.9052 150.487 35.4153C150.408 34.6385 150.567 33.8816 150.946 33.1844C152.34 30.5352 155.387 30.7145 157.917 31.2523V31.2324ZM158.375 33.6426C156.941 33.2243 153.834 32.3877 153.316 34.5987C152.957 36.0926 154.471 36.989 155.806 36.5906C157.14 36.1723 158.076 35.3158 158.574 34.0012C158.654 33.8219 158.574 33.7024 158.395 33.6426H158.375Z" fill="black"/>
<path d="M82.5646 33.1842C82.5646 36.4907 79.8955 39.1598 76.5889 39.1598C73.2824 39.1598 70.6133 36.4907 70.6133 33.1842C70.6133 29.8777 73.2824 27.2085 76.5889 27.2085C79.8955 27.2085 82.5646 29.8777 82.5646 33.1842ZM76.569 36.8094C78.4414 36.8094 79.9552 35.2159 79.9552 33.2241C79.9552 31.2322 78.4613 29.5988 76.6088 29.5988C74.7365 29.5988 73.2226 31.1923 73.2226 33.1842C73.2226 35.1761 74.7166 36.8094 76.569 36.8094Z" fill="black"/>
<path d="M95.6896 33.1842C95.6896 36.4907 93.0205 39.1599 89.7139 39.1599C86.4074 39.1599 83.7383 36.4907 83.7383 33.1842C83.7383 29.8777 86.4074 27.2086 89.7139 27.2086C93.0205 27.2086 95.6896 29.8777 95.6896 33.1842ZM89.6741 36.8095C91.5465 36.8294 93.0802 35.2359 93.1001 33.244C93.12 31.2521 91.6261 29.6188 89.7737 29.5988C87.9013 29.5789 86.3676 31.1724 86.3476 33.1643C86.3277 35.1562 87.8216 36.7895 89.6741 36.8095Z" fill="black"/>
<path d="M117.48 34.8774C117.301 34.9571 117.261 35.0566 117.361 35.2359C118.616 37.5067 121.584 37.1481 122.998 35.2359C123.038 35.1762 123.097 35.1562 123.177 35.196L125.03 36.4709C125.03 36.4709 125.089 36.5705 125.049 36.6303C123.834 38.0843 122.44 38.9009 120.827 39.0603C117.719 39.3989 114.971 37.4469 114.413 34.3595C113.795 30.9534 115.867 27.4675 119.472 27.2484C122.341 27.0692 124.133 28.9017 125.109 31.3716C125.189 31.5509 125.129 31.6904 124.95 31.77L117.5 34.8574L117.48 34.8774ZM116.962 32.9851L122.141 30.7542C121.683 29.6586 120.169 29.2603 118.775 29.8777L118.656 29.9374C117.261 30.535 116.504 31.8895 116.962 32.9651V33.005V32.9851Z" fill="black"/>
<path d="M168.613 34.7778L171.88 27.3681C171.88 27.3681 171.959 27.2885 171.999 27.2885H174.549C174.549 27.2885 174.688 27.3283 174.688 27.408C174.688 27.4279 174.688 27.4478 174.688 27.4677L167.239 44.4386C167.239 44.4386 167.159 44.5182 167.099 44.5182H164.55C164.55 44.5182 164.41 44.4584 164.41 44.3787C164.41 44.3787 164.41 44.339 164.41 44.319L167.039 38.3832C167.039 38.3832 167.039 38.3035 167.039 38.2636L162.299 27.4876C162.299 27.4876 162.299 27.3282 162.378 27.3083C162.378 27.3083 162.418 27.3083 162.438 27.3083H165.008C165.008 27.3083 165.127 27.3283 165.147 27.388L168.374 34.8177C168.374 34.8177 168.494 34.9173 168.553 34.8974C168.593 34.8974 168.613 34.8576 168.633 34.8177L168.613 34.7778Z" fill="black"/>
<path d="M105.708 28.3441C105.788 28.2445 105.808 28.125 105.788 27.9855C105.748 27.7067 105.868 27.5871 106.126 27.5871H107.939C108.178 27.5871 108.298 27.7266 108.298 27.9656C108.238 30.9136 108.238 33.7819 108.298 36.5706C108.337 38.8811 108.118 40.5344 107.6 41.5303C106.624 43.5023 104.931 44.4784 102.541 44.4585C100.33 44.4385 98.5971 43.323 97.3621 41.1319C97.3223 41.0722 97.3622 40.9726 97.402 40.9328L99.4337 40.0364C99.4337 40.0364 99.5931 40.0365 99.6329 40.1162C100.569 42.2276 103.079 42.7852 104.852 41.2714C105.35 40.8332 105.648 40.2755 105.708 39.6182L105.808 38.5425C105.867 37.925 105.648 37.8255 105.17 38.2039C103.876 39.2397 102.362 39.4389 100.629 38.7418C94.215 36.232 96.6052 26.2925 103.577 27.3681C104.294 27.4876 104.891 27.8063 105.389 28.364C105.469 28.4437 105.589 28.4636 105.688 28.364C105.688 28.364 105.708 28.3441 105.728 28.3241L105.708 28.3441ZM102.661 36.8096C104.473 36.8295 105.947 35.236 105.987 33.2441C106.027 31.2523 104.573 29.6189 102.78 29.579C100.967 29.5591 99.4935 31.1527 99.4536 33.1446C99.4138 35.1365 100.868 36.7697 102.661 36.8096Z" fill="black"/>
<path d="M35.2544 34.6783L19.3592 43.4028C18.9011 43.6617 18.8413 43.6021 19.1999 43.2236L31.3703 30.8938C31.4898 30.7743 31.6093 30.7743 31.7288 30.8938L35.2943 34.4393C35.2943 34.4393 35.354 34.5788 35.2943 34.6386C35.2943 34.6386 35.2744 34.6385 35.2544 34.6584V34.6783Z" fill="black"/>
</svg>
