<svg width="361" height="102" viewBox="0 0 361 102" fill="none" xmlns="http://www.w3.org/2000/svg">
<path d="M10.6566 0.210449H349.766C355.249 0.977233 358.7 4.08268 360.118 9.52684V92.9529C358.431 98.9722 354.444 102.001 348.156 102.001C236.398 102.001 124.601 102.001 12.8419 102.001C9.8514 102.001 7.66606 101.618 6.24751 100.889C2.37526 98.8188 0.113281 94.9466 0.113281 90.5759C0.15162 64.5819 0.15162 38.473 0.113281 12.249C0.113281 5.73135 3.94716 1.20727 10.6182 0.210449H10.6566ZM356.974 11.7122C356.974 7.22652 353.332 3.58432 348.846 3.58432H11.5C7.01434 3.58432 3.37208 7.22652 3.37208 11.7122V90.6524C3.37208 95.1381 7.01434 98.7803 11.5 98.7803H348.846C353.332 98.7803 356.974 95.1381 356.974 90.6524V11.7122Z" fill="white"/>
<path d="M215.081 12.8613H213.203C213.076 12.8613 212.973 12.9642 212.973 13.0913V31.3024C212.973 31.4294 213.076 31.5324 213.203 31.5324H215.081C215.208 31.5324 215.311 31.4294 215.311 31.3024V13.0913C215.311 12.9642 215.208 12.8613 215.081 12.8613Z" fill="white"/>
<path d="M103.13 14.28C103.13 13.7816 103.552 13.3599 104.05 13.3599H108.881C113.635 13.3599 117.469 17.0787 117.469 21.6794V23.1363C117.469 27.737 113.597 31.4177 108.843 31.4177H104.012C103.513 31.4177 103.092 30.9958 103.092 30.4974V14.28H103.13ZM105.43 15.7752V29.0788C105.392 29.4622 105.699 29.7689 106.082 29.7689H108.459C112.14 29.7689 115.169 26.8169 115.169 23.1363V21.7562C115.169 18.0756 112.217 15.0852 108.536 15.0852H106.159C105.776 15.0852 105.469 15.3919 105.469 15.7752H105.43Z" fill="white"/>
<path d="M121.685 16.235C122.469 16.235 123.104 15.5999 123.104 14.8165C123.104 14.033 122.469 13.3979 121.685 13.3979C120.902 13.3979 120.267 14.033 120.267 14.8165C120.267 15.5999 120.902 16.235 121.685 16.235Z" fill="white"/>
<path d="M181.345 16.3503C182.533 15.0467 182.993 12.5548 185.37 13.5516C185.639 13.6666 185.639 13.8199 185.447 14.0116L182.802 16.8106C182.572 17.0406 182.265 17.1554 181.92 17.1171H181.575C181.345 17.0404 181.153 16.8103 181.191 16.5803C181.191 16.5036 181.23 16.427 181.306 16.3503H181.345Z" fill="white"/>
<path d="M122.529 18.3823H120.919C120.729 18.3823 120.574 18.5369 120.574 18.7274V31.1877C120.574 31.3782 120.729 31.5326 120.919 31.5326H122.529C122.72 31.5326 122.874 31.3782 122.874 31.1877V18.7274C122.874 18.5369 122.72 18.3823 122.529 18.3823Z" fill="white"/>
<path d="M132.077 27.2005C131.311 26.357 130.314 25.7053 129.048 25.3219C122.876 23.4049 127.515 16.5423 133.189 18.8809C133.573 19.0343 133.803 19.4561 133.726 19.8778L133.611 20.2995C133.496 20.7979 133.227 20.913 132.767 20.6446C131.349 19.7628 130.007 19.8011 128.78 20.7979C128.205 21.258 128.128 22.1014 128.588 22.6765C128.703 22.7915 128.818 22.9066 128.972 22.9833C129.892 23.4817 130.812 23.9033 131.771 24.2867C134.991 25.5135 135.298 29.5776 132.039 30.9195C130.045 31.7246 128.052 31.6479 126.058 30.6511C125.79 30.5361 125.713 30.3059 125.828 30.0375L126.211 29.2709C126.326 29.0026 126.671 28.8873 126.94 29.0407C128.703 29.9992 131.004 30.3061 132.192 28.2741C132.422 27.8907 132.384 27.5072 132.077 27.1621V27.2005Z" fill="white"/>
<path d="M139.667 30.3059L139.859 36.0568C139.859 36.3635 139.706 36.5169 139.399 36.5169H137.827C137.597 36.5169 137.444 36.3252 137.444 36.0952V18.5742C137.444 18.5742 137.482 18.4209 137.597 18.4209H138.977C139.322 18.3442 139.476 18.5359 139.437 18.8809L139.284 20.1843C139.207 20.7594 139.361 20.7978 139.744 20.4144C142.696 17.1172 147.373 18.0375 148.754 22.2164C150.632 27.8906 145.993 34.485 140.012 30.1143C139.744 29.9226 139.629 29.9992 139.629 30.3059H139.667ZM146.875 23.5201C146.875 21.7181 145.495 20.2227 143.693 20.1843H143.194C141.393 20.146 139.897 21.5646 139.859 23.3666L139.782 26.3955C139.782 28.1975 141.163 29.6927 142.964 29.731H143.463C145.265 29.7693 146.76 28.3507 146.798 26.5488L146.875 23.5201Z" fill="white"/>
<path d="M156.728 31.4945C153.316 31.1111 150.901 27.8522 151.322 24.2483C151.744 20.6445 154.849 18.0376 158.223 18.421C161.636 18.8043 164.051 22.0632 163.629 25.6671C163.207 29.271 160.102 31.8779 156.728 31.4945ZM157.457 29.846C159.604 29.846 161.367 27.6989 161.406 24.9768C161.406 22.2931 159.719 20.0695 157.572 20.0695C155.425 20.0695 153.661 22.2166 153.623 24.9387C153.623 27.6224 155.31 29.846 157.457 29.846Z" fill="white"/>
<path d="M169.152 20.3764C172.488 16.7725 177.089 18.4977 177.319 23.1367C177.434 25.7438 177.472 28.4276 177.395 31.1497C177.395 31.3414 177.28 31.4563 177.089 31.4563L175.363 31.533C175.133 31.533 175.057 31.4179 175.057 31.2262V23.9803C175.057 22.4084 174.405 21.2197 173.025 20.4145C172.641 20.1845 172.296 20.1463 171.913 20.2613C170.073 20.798 169.152 21.9483 169.152 23.7119C169.152 26.0889 169.152 28.581 169.152 31.1497C169.152 31.3414 169.037 31.4563 168.846 31.4946L167.082 31.5714C167.082 31.5714 166.775 31.4563 166.775 31.303V18.8811C166.775 18.6511 166.929 18.4594 167.197 18.4594H168.386C168.692 18.4594 168.846 18.6128 168.846 18.9195L168.731 20.2229C168.692 20.7596 168.846 20.8363 169.191 20.4529L169.152 20.3764Z" fill="white"/>
<path d="M183.193 18.5189L181.391 18.5221C181.264 18.5223 181.161 18.6254 181.162 18.7525L181.183 31.2895C181.184 31.4165 181.287 31.5193 181.414 31.5191L183.216 31.5159C183.343 31.5157 183.446 31.4125 183.445 31.2855L183.424 18.7485C183.423 18.6215 183.32 18.5187 183.193 18.5189Z" fill="white"/>
<path d="M191.695 28.4271C191.887 29.0789 192.117 29.0789 192.347 28.4271L195.529 18.689C195.529 18.689 195.606 18.5355 195.682 18.5355C196.296 18.3822 197.024 18.344 197.868 18.459C197.983 18.459 198.021 18.5356 197.983 18.6123L193.267 30.9193C193.152 31.1876 192.96 31.3792 192.692 31.4942C192.27 31.6476 191.81 31.686 191.35 31.571C191.005 31.4943 190.775 31.2643 190.66 30.9193L186.136 18.6507C186.136 18.6507 186.136 18.459 186.251 18.4206C186.251 18.4206 186.251 18.4206 186.289 18.4206H188.206C188.206 18.4206 188.513 18.4973 188.59 18.6507L191.733 28.4271H191.695Z" fill="white"/>
<path d="M202.274 25.7055C200.932 25.7055 200.664 26.2425 201.393 27.3543C201.584 27.661 201.814 27.9293 201.968 28.1976C202.696 29.2328 203.885 29.8462 205.15 29.8078C206.76 29.7695 207.872 29.5778 208.485 29.3094C208.754 29.1944 209.06 29.3094 209.214 29.5394C209.214 29.5394 209.214 29.5395 209.214 29.5778L209.367 30.0378C209.482 30.3446 209.329 30.6896 209.022 30.7663C206.99 31.5714 204.958 31.6865 203.003 31.1115C195.68 29.0028 198.862 16.4658 206.415 18.5745C209.214 19.3413 210.134 22.2935 210.134 24.9389C210.134 25.4373 209.904 25.6674 209.405 25.6674H202.236L202.274 25.7055ZM201.584 24.0186H207.757C207.757 24.0186 208.025 23.8654 208.025 23.712V23.3285C208.025 21.5265 206.53 20.0698 204.69 20.0698H204.651C202.811 20.0698 201.354 21.5649 201.354 23.3669V23.7504C201.354 23.7504 201.469 24.0186 201.623 24.0186H201.584Z" fill="white"/>
<path d="M227.965 20.2994C230.151 17.9224 232.374 17.6924 234.598 19.6861C236.783 21.603 236.132 28.389 236.093 31.0727C236.093 31.3411 235.94 31.456 235.671 31.4944H234.061C234.061 31.4944 233.793 31.4561 233.793 31.2644V23.7882C233.793 22.0629 232.988 20.9128 231.377 20.2994C231.071 20.1844 230.802 20.1844 230.496 20.2994C228.617 20.9512 227.697 22.2163 227.774 24.0949C227.812 26.4336 227.85 28.734 227.85 31.0343C227.85 31.341 227.697 31.4944 227.39 31.5328H226.048C225.703 31.5711 225.55 31.4178 225.55 31.0727V18.9958C225.55 18.574 225.742 18.4209 226.125 18.4592C226.24 18.4592 226.355 18.4592 226.432 18.4592C227.275 18.2675 227.62 18.5742 227.429 19.4177C227.39 19.6861 227.352 19.9159 227.39 20.1843C227.429 20.6827 227.62 20.7212 227.965 20.3762V20.2994Z" fill="white"/>
<path d="M246.482 22.9447C246.06 20.8744 244.871 19.9159 242.955 20.1076C241.958 20.2227 241.229 20.7594 240.271 20.8361C239.964 20.8361 239.772 20.7211 239.772 20.376V19.916C239.772 19.6093 239.887 19.379 240.194 19.2257C244.028 17.3471 248.667 18.4207 248.552 23.4047C248.475 25.9735 248.552 28.5805 248.629 31.2642C248.629 31.4559 248.552 31.5326 248.399 31.4943L246.942 31.3794C246.942 31.3794 246.75 31.3027 246.788 31.1493C246.827 30.8426 246.788 30.4976 246.673 30.1909C246.482 29.7308 246.213 29.654 245.868 30.0373C241.153 35.0598 234.597 26.2418 242.226 23.8648C243.53 23.4814 244.795 23.2897 246.098 23.328C246.443 23.328 246.597 23.1747 246.52 22.8679L246.482 22.9447ZM245.715 24.9766C243.645 24.8999 242.188 25.4368 241.306 26.5486C240.769 27.2004 240.769 28.1587 241.306 28.8105C242.034 29.6923 242.878 29.9992 243.875 29.7308C245.868 29.1557 246.712 27.8139 246.443 25.6669C246.405 25.2451 246.137 25.0149 245.715 24.9766Z" fill="white"/>
<path d="M36.3445 32.1462C46.7727 37.897 57.316 43.6861 67.9743 49.4753C68.1277 49.552 68.166 49.7055 68.0893 49.8588C68.0893 49.8588 68.0893 49.897 68.051 49.9354L61.1499 56.7982C60.8815 57.0666 60.6515 57.0666 60.3832 56.7982L36.0761 32.5678C36.0761 32.5678 35.9994 32.3761 36.0761 32.2994C36.1911 32.1461 36.2678 32.1078 36.3445 32.1462Z" fill="white"/>
<path d="M59.4243 58.5234L34.5039 83.8274C34.1205 84.2108 33.5454 84.2108 33.162 83.8274C32.9703 83.6357 32.8553 83.4057 32.8553 83.1373L32.5869 34.9066C32.5869 32.3379 33.4687 31.9545 35.309 33.7565L59.4627 57.9101C59.6543 58.1018 59.6543 58.2936 59.4627 58.4853L59.4243 58.5234Z" fill="white"/>
<path d="M128.358 61.0541H117.584C117.584 61.0541 117.354 61.0158 117.354 60.8624V56.4533C117.354 56.2616 117.431 56.1465 117.623 56.1465H132.958C133.457 56.1465 133.764 56.3766 133.802 56.875C134.684 65.808 130.313 73.2458 121.572 75.0861C108.268 77.8849 96.3446 66.3449 100.025 52.9646C101.444 47.7888 105.738 43.0347 110.798 41.2328C117.584 38.8174 123.795 39.9291 129.431 44.6448C129.508 44.7215 129.508 44.8365 129.431 44.9132L126.249 48.1722C126.249 48.1722 126.019 48.2872 125.942 48.1722C121.227 44.2999 116.358 43.7248 111.22 46.4469C103.591 50.5108 102.479 60.7857 108.306 66.8433C114.402 73.2076 127.668 71.5207 128.856 61.5909C128.895 61.2075 128.741 61.0157 128.358 61.0157V61.0541Z" fill="white"/>
<path d="M258.023 63.3157L258.138 74.6258C258.138 74.6258 258.061 74.8559 257.908 74.8559H253.307C253.307 74.8559 253.077 74.7792 253.077 74.6258L252.924 41.3858C252.924 41.1558 253.116 40.9258 253.346 40.9258C256.643 41.1175 259.978 41.1941 263.352 41.0791C265.997 41.0024 268.106 41.3475 269.716 42.1527C275.237 44.8364 277.576 51.3541 274.662 56.7983C271.173 63.3543 265.154 62.7407 258.675 62.6256C258.176 62.6256 257.946 62.8557 257.946 63.3541L258.023 63.3157ZM258.215 46.6767V57.2199C258.215 57.45 258.445 57.68 258.713 57.68H264.962C268.298 57.68 270.982 55.1495 270.943 52.044V51.814C270.943 48.7085 268.221 46.2166 264.924 46.255H258.675C258.445 46.255 258.215 46.485 258.215 46.715V46.6767Z" fill="white"/>
<path d="M217.037 41.1553H212.59C212.441 41.1553 212.321 41.2755 212.321 41.4237V74.6254C212.321 74.7736 212.441 74.8938 212.59 74.8938H217.037C217.185 74.8938 217.305 74.7736 217.305 74.6254V41.4237C217.305 41.2755 217.185 41.1553 217.037 41.1553Z" fill="white"/>
<path d="M284.474 41.1175H280.104C279.913 41.1175 279.759 41.2721 279.759 41.4626V74.511C279.759 74.7016 279.913 74.8559 280.104 74.8559H284.474C284.665 74.8559 284.82 74.7016 284.82 74.511V41.4626C284.82 41.2721 284.665 41.1175 284.474 41.1175Z" fill="white"/>
<path d="M78.0183 54.9198C79.2068 55.5332 80.2419 56.1851 81.1237 56.9135C82.3889 57.987 82.2355 58.9456 80.702 59.8657C77.2515 61.8977 73.7243 63.8913 70.0437 65.8466C69.7753 65.9999 69.5453 65.9615 69.3153 65.7315L62.2609 58.6772C61.9925 58.3705 61.9925 58.102 62.2609 57.8336L69.3536 50.7026C69.5837 50.4342 69.852 50.4343 70.1587 50.5877C72.6508 52.1212 75.2962 53.5396 78.0183 54.9198Z" fill="white"/>
<path d="M304.067 60.3255C305.409 60.5939 305.716 60.1721 304.949 59.0219C302.649 55.6481 299.62 54.8813 295.825 56.6833C295.058 57.0283 294.444 57.6034 293.908 58.3702C293.601 58.8303 293.179 58.9069 292.719 58.6002L289.92 56.76C289.46 56.4533 289.422 56.0698 289.767 55.648C293.716 51.2774 298.393 50.0506 303.837 51.9292C307.595 53.2328 310.355 57.0283 310.355 60.9772C310.355 65.5013 310.355 69.9871 310.432 74.5111C310.432 74.7411 310.317 74.8944 310.048 74.8944H305.793C305.601 74.8944 305.409 74.7411 305.409 74.5495L305.486 73.1307C305.486 72.2489 305.256 72.134 304.681 72.8241C303.147 74.5877 301 75.5079 298.24 75.5079C293.064 75.5079 290.227 73.1691 289.767 68.3767C289.614 66.8814 289.92 65.4246 290.649 64.0827C293.332 58.9836 299.198 59.3288 304.067 60.3639V60.3255ZM304.949 64.9647C302.189 64.1595 296.208 62.5492 295.211 66.8049C294.521 69.6803 297.435 71.4056 300.003 70.6388C302.572 69.8337 304.374 68.1851 305.333 65.6547C305.486 65.3097 305.333 65.0797 304.988 64.9647H304.949Z" fill="white"/>
<path d="M159.03 64.0823C159.03 70.4466 153.892 75.584 147.528 75.584C141.164 75.584 136.026 70.4466 136.026 64.0823C136.026 57.718 141.164 52.5805 147.528 52.5805C153.892 52.5805 159.03 57.718 159.03 64.0823ZM147.49 71.06C151.094 71.06 154.007 67.9929 154.007 64.159C154.007 60.3251 151.132 57.1813 147.566 57.1813C143.962 57.1813 141.049 60.2483 141.049 64.0823C141.049 67.9162 143.924 71.06 147.49 71.06Z" fill="white"/>
<path d="M184.295 64.0823C184.295 70.4466 179.157 75.5841 172.793 75.5841C166.428 75.5841 161.291 70.4466 161.291 64.0823C161.291 57.718 166.428 52.5806 172.793 52.5806C179.157 52.5806 184.295 57.718 184.295 64.0823ZM172.716 71.0601C176.32 71.0984 179.272 68.0314 179.31 64.1974C179.349 60.3635 176.473 57.2197 172.908 57.1813C169.304 57.143 166.352 60.21 166.313 64.0439C166.275 67.8779 169.151 71.0217 172.716 71.0601Z" fill="white"/>
<path d="M226.235 67.3411C225.89 67.4944 225.814 67.6861 226.005 68.0311C228.421 72.4018 234.133 71.7117 236.855 68.0311C236.932 67.9161 237.047 67.8777 237.2 67.9544L240.766 70.4081C240.766 70.4081 240.881 70.5999 240.804 70.7149C238.466 73.5137 235.782 75.0855 232.676 75.3922C226.696 76.044 221.405 72.2868 220.331 66.3442C219.143 59.7882 223.13 53.0788 230.069 52.6571C235.59 52.312 239.041 55.8393 240.919 60.5933C241.073 60.9384 240.958 61.2068 240.613 61.3602L226.274 67.3027L226.235 67.3411ZM225.239 63.6988L235.207 59.4048C234.325 57.2962 231.411 56.5294 228.727 57.7179L228.497 57.8328C225.814 58.983 224.357 61.5901 225.239 63.6604V63.7372V63.6988Z" fill="white"/>
<path d="M324.653 67.1497L330.941 52.8876C330.941 52.8876 331.094 52.7344 331.171 52.7344H336.079C336.079 52.7344 336.347 52.811 336.347 52.9644C336.347 53.0027 336.347 53.041 336.347 53.0793L322.008 85.7443C322.008 85.7443 321.855 85.8976 321.74 85.8976H316.832C316.832 85.8976 316.564 85.7826 316.564 85.6292C316.564 85.6292 316.564 85.5527 316.564 85.5143L321.625 74.0891C321.625 74.0891 321.625 73.9357 321.625 73.8591L312.5 53.1177C312.5 53.1177 312.5 52.8109 312.653 52.7725C312.653 52.7725 312.73 52.7725 312.768 52.7725H317.714C317.714 52.7725 317.944 52.811 317.982 52.926L324.193 67.2265C324.193 67.2265 324.423 67.4181 324.538 67.3797C324.615 67.3797 324.653 67.3031 324.692 67.2265L324.653 67.1497Z" fill="white"/>
<path d="M203.578 54.7662C203.731 54.5745 203.77 54.3445 203.731 54.0761C203.655 53.5394 203.885 53.3093 204.383 53.3093H207.872C208.332 53.3093 208.562 53.5777 208.562 54.0377C208.447 59.7119 208.447 65.2328 208.562 70.6003C208.639 75.0476 208.217 78.2297 207.22 80.1467C205.342 83.9423 202.083 85.821 197.482 85.7827C193.226 85.7443 189.891 83.5972 187.514 79.3799C187.437 79.2648 187.514 79.0732 187.59 78.9966L191.501 77.2713C191.501 77.2713 191.808 77.2714 191.884 77.4248C193.686 81.4887 198.517 82.562 201.929 79.6483C202.888 78.8048 203.463 77.7315 203.578 76.4663L203.77 74.3958C203.885 73.2073 203.463 73.0157 202.543 73.7441C200.051 75.7378 197.137 76.1212 193.801 74.7794C181.456 69.9486 186.057 50.8173 199.476 52.8876C200.856 53.1176 202.006 53.7311 202.965 54.8046C203.118 54.9579 203.348 54.9963 203.54 54.8046C203.54 54.8046 203.578 54.7661 203.616 54.7278L203.578 54.7662ZM197.712 71.0603C201.201 71.0987 204.038 68.0316 204.115 64.1977C204.191 60.3638 201.393 57.2199 197.942 57.1432C194.453 57.1049 191.616 60.1721 191.539 64.0061C191.463 67.84 194.261 70.9837 197.712 71.0603Z" fill="white"/>
<path d="M67.9712 66.9582L37.3765 83.7507C36.4947 84.2492 36.3797 84.1343 37.0698 83.4058L60.4951 59.6739C60.7251 59.4438 60.9551 59.4438 61.1851 59.6739L68.0479 66.4981C68.0479 66.4981 68.1629 66.7666 68.0479 66.8817C68.0479 66.8817 68.0095 66.8815 67.9712 66.9198V66.9582Z" fill="white"/>
</svg>
